<svg width="10" height="19" viewBox="0 0 10 19" fill="none" xmlns="http://www.w3.org/2000/svg">
<path d="M8.73761 9.23975L1.93053 1.28154C1.77309 1.09733 1.56327 0.996145 1.33983 0.996696C1.11638 0.997247 0.907067 1.09946 0.750537 1.28445L0.252139 1.87285C-0.0721709 2.25625 -0.0706375 2.87809 0.255558 3.25931L5.97163 9.94214L0.28228 16.6605C0.12575 16.8455 0.0396809 17.0918 0.0403279 17.3542C0.0409757 17.6169 0.128259 17.8628 0.285699 18.0471L0.786993 18.6329C0.944557 18.8171 1.15424 18.9183 1.37769 18.9178C1.60114 18.9172 1.81045 18.815 1.96698 18.63L8.74104 10.631C8.89794 10.4455 8.98376 10.198 8.98261 9.93515C8.98246 9.67129 8.89542 9.4244 8.73761 9.23975Z" fill="#8239BD"/>
</svg>
