<svg width="18" height="17" viewBox="0 0 18 17" fill="none" xmlns="http://www.w3.org/2000/svg">
<g clip-path="url(#clip0)">
<path d="M8.62207 0C3.9277 0 0.12207 3.80563 0.12207 8.5C0.12207 13.1944 3.9277 17 8.62207 17C13.3164 17 17.1221 13.1944 17.1221 8.5C17.1168 3.80785 13.3142 0.00525718 8.62207 0ZM15.9734 11.4778L13.5561 11.8949C13.8327 10.8801 13.9822 9.8349 14.0008 8.78333H16.5483C16.5164 9.70832 16.3217 10.6204 15.9734 11.4778ZM0.695793 8.78333H3.2433C3.26198 9.8349 3.41139 10.8801 3.68809 11.8949L1.27076 11.4778C0.922404 10.6204 0.727751 9.70832 0.695793 8.78333ZM1.27076 5.52223L3.68809 5.10512C3.41139 6.11989 3.26198 7.1651 3.2433 8.21667H0.695793C0.727751 7.29168 0.922404 6.37957 1.27076 5.52223ZM8.9054 4.54924C9.92349 4.56225 10.9391 4.65494 11.9428 4.82663L12.9429 4.99915C13.2502 6.04477 13.4155 7.12691 13.4344 8.21667H8.9054V4.54924ZM12.0394 4.26812C11.0038 4.09118 9.95587 3.99558 8.9054 3.98258V0.582577C10.5297 0.738631 11.9407 2.22585 12.7404 4.39028L12.0394 4.26812ZM8.33874 3.98258C7.28827 3.99558 6.24058 4.09118 5.20505 4.26812L4.50378 4.38945C5.30342 2.22447 6.71441 0.736694 8.33874 0.581331V3.98258ZM5.30162 4.82663C6.30518 4.65494 7.32065 4.56225 8.33874 4.54924V8.21667H3.80969C3.82865 7.12691 3.99397 6.04477 4.30124 4.99915L5.30162 4.82663ZM3.80969 8.78333H8.33874V12.4508C7.32065 12.4378 6.30505 12.3451 5.30134 12.1734L4.30124 12.0009C3.99397 10.9552 3.82865 9.87309 3.80969 8.78333ZM5.20478 12.7319C6.2403 12.9091 7.28813 13.0051 8.33874 13.0189V16.4189C6.71441 16.2628 5.30342 14.7755 4.50378 12.6111L5.20478 12.7319ZM8.9054 13.0189C9.95587 13.0051 11.0036 12.9091 12.0391 12.7319L12.7404 12.6105C11.9407 14.7755 10.5297 16.2633 8.9054 16.4187V13.0189ZM11.9425 12.1734C10.939 12.3451 9.92349 12.4378 8.9054 12.4508V8.78333H13.4344C13.4155 9.87309 13.2502 10.9552 12.9429 12.0009L11.9425 12.1734ZM14.0008 8.21667C13.9822 7.1651 13.8327 6.11989 13.5561 5.10512L15.9734 5.52223C16.3217 6.37957 16.5164 7.29168 16.5483 8.21667H14.0008ZM15.6867 4.89774L13.3696 4.49792C12.953 3.13894 12.1737 1.91928 11.1153 0.970361C13.0944 1.63083 14.7356 3.04071 15.6867 4.89774ZM6.12879 0.970361C5.07044 1.91928 4.29114 3.13894 3.87458 4.49792L1.55741 4.89774C2.50854 3.04071 4.14975 1.63083 6.12879 0.970361ZM1.55741 12.1023L3.87458 12.5021C4.29114 13.8611 5.07044 15.0807 6.12879 16.0296C4.14975 15.3692 2.50854 13.9593 1.55741 12.1023ZM11.1153 16.0296C12.1737 15.0807 12.953 13.8611 13.3696 12.5021L15.6867 12.1023C14.7356 13.9593 13.0944 15.3692 11.1153 16.0296Z" fill="#8239BD"/>
</g>
<defs>
<clipPath id="clip0">
<rect width="17" height="17" fill="white" transform="translate(0.12207)"/>
</clipPath>
</defs>
</svg>
