<svg width="91" height="40" viewBox="0 0 91 40" fill="none" xmlns="http://www.w3.org/2000/svg">
<path fill-rule="evenodd" clip-rule="evenodd" d="M5.73112 39.9867V40H34.6954V39.9867H34.8699V39.9734H35.0041V39.9602H35.1115V39.9469H35.2189V39.9336H35.2994V39.9203H35.3665V39.907H35.4471V39.8938H35.5142V39.8805H35.5813V39.8672H35.635V39.8539H35.7021V39.8406H35.7558V39.8274H35.8094V39.8141H35.8631V39.8008H35.9168V39.7875H35.9571V39.7742H36.0108V39.761H36.051V39.7477H36.1047V39.7344H36.145V39.7211H36.1853V39.7078H36.2255V39.6946H36.2658V39.6813H36.3061V39.668H36.3463V39.6547H36.3866V39.6414H36.4134V39.6282H36.4537V39.6149H36.4805V39.6016H36.5208V39.5883H36.5611V39.575H36.5879V39.5617H36.6282V39.5485H36.655V39.5352H36.6953V39.5219H36.7221V39.5086H36.749V39.4953H36.7758V39.4821H36.8027V39.4688H36.8429V39.4555H36.8698V39.4422H36.8966V39.4289H36.9235V39.4157H36.9503V39.4024H36.9771V39.3891H37.004V39.3758H37.0308V39.3626H37.0577V39.3493H37.0845V39.336H37.1114V39.3227H37.1382V39.3094H37.165V39.2961H37.1919V39.2829H37.2187V39.2696H37.2456V39.2563H37.259V39.243H37.2858V39.2297H37.3127V39.2165H37.3395V39.2032H37.353V39.1899H37.3798V39.1766H37.4066V39.1633H37.4335V39.1501H37.4469V39.1368H37.4737V39.1235H37.5006V39.1102H37.514V39.0969H37.5409V39.0837H37.5543V39.0704H37.5811V39.0571H37.5945V39.0438H37.6214V39.0305H37.6482V39.0173H37.6617V39.004H37.6885V38.9907H37.7019V38.9774H37.7288V38.9641H37.7422V38.9509H37.769V38.9376H37.7825V38.9243H37.7959V38.911H37.8227V38.8977H37.8361V38.8845H37.863V38.8712H37.8764V38.8579H37.8898V38.8446H37.9167V38.8313H37.9301V38.8181H37.9569V38.8048H37.9704V38.7915H37.9838V38.7782H38.0106V38.7649H38.024V38.7517H38.0375V38.7384H38.0509V38.7251H38.0777V38.7118H38.0912V38.6985H38.1046V38.6853H38.1314V38.672H38.1448V38.6587H38.1583V38.6454H38.1717V38.6321H38.1985V38.6189H38.212V38.6056H38.2254V38.5923H38.2388V38.579H38.2522V38.5657H38.2656V38.5525H38.2925V38.5392H38.3059V38.5259H38.3193V38.5126H38.3327V38.4993H38.3462V38.4861H38.3596V38.4728H38.3864V38.4595H38.3999V38.4462H38.4133V38.4329H38.4267V38.4197H38.4401V38.4064H38.4535V38.3931H38.467V38.3798H38.4804V38.3665H38.4938V38.3532H38.5072V38.34H38.5207V38.3267H38.5341V38.3134H38.5475V38.3001H38.5609V38.2868H38.5878V38.2736H38.6012V38.2603H38.6146V38.247H38.628V38.2337H38.6414V38.2205H38.6549V38.2072H38.6683V38.1939H38.6817V38.1806H38.6951V38.154H38.7086V38.1408H38.722V38.1275H38.7354V38.1142H38.7488V38.1009H38.7622V38.0876H38.7757V38.0744H38.7891V38.0611H38.8025V38.0478H38.8159V38.0345H38.8294V38.0212H38.8428V38.008H38.8562V37.9947H38.8696V37.9814H38.883V37.9548H38.8965V37.9416H38.9099V37.9283H38.9233V37.915H38.9367V37.9017H38.9501V37.8884H38.9636V37.8752H38.977V37.8486H38.9904V37.8353H39.0038V37.822H39.0173V37.8088H39.0307V37.7955H39.0441V37.7689H39.0575V37.7556H39.0709V37.7424H39.0844V37.7291H39.0978V37.7025H39.1112V37.6892H39.1246V37.676H39.1381V37.6627H39.1515V37.6361H39.1649V37.6228H39.1783V37.6096H39.1917V37.583H39.2052V37.5697H39.2186V37.5564H39.232V37.5299H39.2454V37.5166H39.2589V37.5033H39.2723V37.4768H39.2857V37.4635H39.2991V37.4369H39.3125V37.4236H39.326V37.4104H39.3394V37.3838H39.3528V37.3705H39.3662V37.344H39.3796V37.3307H39.3931V37.3041H39.4065V37.2908H39.4199V37.2643H39.4333V37.251H39.4468V37.2244H39.4602V37.2112H39.4736V37.1846H39.487V37.1713H39.5004V37.1447H39.5139V37.1182H39.5273V37.1049H39.5407V37.0784H39.5541V37.0651H39.5676V37.0385H39.581V37.0119H39.5944V36.9854H39.6078V36.9721H39.6212V36.9455H39.6347V36.919H39.6481V36.8924H39.6615V36.8792H39.6749V36.8526H39.6884V36.826H39.7018V36.7995H39.7152V36.7729H39.7286V36.7463H39.742V36.7331H39.7555V36.7065H39.7689V36.6799H39.7823V36.6534H39.7957V36.6268H39.8092V36.6003H39.8226V36.5737H39.836V36.5471H39.8494V36.5073H39.8628V36.4807H39.8763V36.4542H39.8897V36.4276H39.9031V36.4011H39.9165V36.3612H39.9299V36.3347H39.9434V36.3081H39.9568V36.2815H39.9702V36.2417H39.9836V36.2151H39.9971V36.1753H40.0105V36.1487H40.0239V36.1089H40.0373V36.0691H40.0507V36.0425H40.0642V36.0027H40.0776V35.9628H40.091V35.923H40.1044V35.8831H40.1179V35.8433H40.1313V35.8167H40.1447V35.7769H40.1581V35.737H40.1715V35.6839H40.185V35.6441H40.1984V35.591H40.2118V35.5511H40.2252V35.498H40.2386V35.4449H40.2521V35.3918H40.2655V35.3386H40.2789V35.2855H40.2923V35.2191H40.3058V35.166H40.3192V35.0863H40.3326V35.0199H40.346V34.9402H40.3594V34.8738H40.3729V34.7676H40.3863V34.6614H40.3997V34.5551H40.4131V34.3825H40.4265V34.1567H40.44V5.83001H40.4265V5.60425H40.4131V5.43161H40.3997V5.32536H40.3863V5.2324H40.3729V5.12616H40.3594V5.04648H40.346V4.98008H40.3326V4.9004H40.3192V4.834H40.3058V4.7676H40.2923V4.71447H40.2789V4.66136H40.2655V4.59495H40.2521V4.54183H40.2386V4.50199H40.2252V4.44887H40.2118V4.40903H40.1984V4.35591H40.185V4.31607H40.1715V4.26295H40.1581V4.22311H40.1447V4.18327H40.1313V4.14343H40.1179V4.10359H40.1044V4.06374H40.091V4.02391H40.0776V3.98406H40.0642V3.9575H40.0507V3.91766H40.0373V3.8911H40.0239V3.85126H40.0105V3.8247H39.9971V3.78486H39.9836V3.7583H39.9702V3.71846H39.9568V3.6919H39.9434V3.65206H39.9299V3.6255H39.9165V3.59894H39.9031V3.57238H39.8897V3.54582H39.8763V3.50598H39.8628V3.47942H39.8494V3.45286H39.836V3.4263H39.8226V3.39974H39.8092V3.37317H39.7957V3.34661H39.7823V3.32005H39.7689V3.29349H39.7555V3.26693H39.742V3.24037H39.7286V3.21381H39.7152V3.18725H39.7018V3.16069H39.6884V3.14741H39.6749V3.12085H39.6615V3.09429H39.6481V3.06773H39.6347V3.05445H39.6212V3.02789H39.6078V3.00133H39.5944V2.97477H39.581V2.96149H39.5676V2.93493H39.5541V2.90837H39.5407V2.89508H39.5273V2.86852H39.5139V2.85525H39.5004V2.82869H39.487V2.8154H39.4736V2.78884H39.4602V2.76228H39.4468V2.749H39.4333V2.72244H39.4199V2.70917H39.4065V2.6826H39.3931V2.66932H39.3796V2.64276H39.3662V2.62948H39.3528V2.60292H39.3394V2.58964H39.326V2.57636H39.3125V2.5498H39.2991V2.53652H39.2857V2.50996H39.2723V2.49668H39.2589V2.4834H39.2454V2.45684H39.232V2.44356H39.2186V2.417H39.2052V2.40372H39.1917V2.39044H39.1783V2.37716H39.1649V2.3506H39.1515V2.33732H39.1381V2.32404H39.1246V2.31076H39.1112V2.2842H39.0978V2.27092H39.0844V2.25764H39.0709V2.23108H39.0575V2.2178H39.0441V2.20451H39.0307V2.19124H39.0173V2.17795H39.0038V2.15139H38.9904V2.13812H38.977V2.12483H38.9636V2.11156H38.9501V2.09827H38.9367V2.08499H38.9233V2.07171H38.9099V2.04515H38.8965V2.03187H38.883V2.01859H38.8696V2.00531H38.8562V1.99203H38.8428V1.97875H38.8294V1.96547H38.8159V1.95219H38.8025V1.93891H38.7891V1.91235H38.7757V1.89907H38.7622V1.88579H38.7488V1.87251H38.7354V1.85923H38.722V1.84595H38.7086V1.83267H38.6951V1.81939H38.6817V1.80611H38.6683V1.79283H38.6549V1.77955H38.6414V1.76627H38.628V1.75299H38.6146V1.73971H38.6012V1.72643H38.5878V1.71315H38.5743V1.69987H38.5609V1.68659H38.5475V1.67331H38.5341V1.66003H38.5207V1.64675H38.5072V1.63346H38.4938V1.62019H38.467V1.6069H38.4535V1.59363H38.4401V1.58034H38.4267V1.56707H38.4133V1.55378H38.3999V1.54051H38.3864V1.52722H38.373V1.51394H38.3596V1.50066H38.3327V1.48738H38.3193V1.4741H38.3059V1.46082H38.2925V1.44754H38.2791V1.43426H38.2656V1.42098H38.2522V1.4077H38.2254V1.39442H38.212V1.38114H38.1985V1.36786H38.1851V1.35458H38.1717V1.3413H38.1448V1.32802H38.1314V1.31474H38.118V1.30146H38.0912V1.28818H38.0777V1.2749H38.0643V1.26162H38.0509V1.24834H38.024V1.23506H38.0106V1.22178H37.9972V1.2085H37.9838V1.19522H37.9569V1.18194H37.9435V1.16866H37.9167V1.15538H37.9033V1.1421H37.8898V1.12882H37.863V1.11554H37.8496V1.10226H37.8227V1.08898H37.8093V1.0757H37.7959V1.06242H37.769V1.04914H37.7556V1.03585H37.7288V1.02258H37.7153V1.00929H37.6885V0.996017H37.6751V0.982735H37.6482V0.969457H37.6348V0.956175H37.608V0.942897H37.5811V0.929615H37.5677V0.916333H37.5409V0.903055H37.5274V0.889773H37.5006V0.876495H37.4872V0.863213H37.4603V0.849935H37.4335V0.836653H37.4201V0.823375H37.3932V0.810093H37.3664V0.796811H37.3395V0.783533H37.3261V0.770251H37.2993V0.756973H37.2724V0.743691H37.2456V0.730413H37.2322V0.717131H37.2053V0.703853H37.1785V0.690571H37.1516V0.677289H37.1248V0.664011H37.0979V0.650729H37.0711V0.637451H37.0443V0.624169H37.0174V0.610891H36.9906V0.597609H36.9637V0.584327H36.9369V0.571049H36.91V0.557767H36.8832V0.544489H36.8429V0.531207H36.8161V0.517929H36.7892V0.504647H36.7624V0.49137H36.7355V0.478087H36.6953V0.464805H36.6684V0.451528H36.6282V0.438245H36.6013V0.424968H36.5611V0.411685H36.5342V0.398408H36.494V0.385126H36.4671V0.371848H36.4268V0.358566H36.4V0.345283H36.3597V0.332006H36.3195V0.318724H36.2792V0.305446H36.2389V0.292164H36.1987V0.278886H36.1584V0.265604H36.1181V0.252326H36.0645V0.239044H36.0242V0.225762H35.9705V0.212484H35.9302V0.199202H35.8766V0.185924H35.8363V0.172642H35.7826V0.159364H35.7155V0.146082H35.6618V0.132804H35.6081V0.119522H35.541V0.10624H35.4739V0.0929619H35.3934V0.0796798H35.3263V0.066402H35.2457V0.0531199H35.1384V0.0398421H35.0444V0.0265599H34.937V0.0132821H34.7625V0H5.67743V0.0132821H5.50295V0.0265599H5.39558V0.0398421H5.2882V0.0531199H5.18083V0.066402H5.11372V0.0796798H5.03319V0.0929619H4.96608V0.10624H4.88555V0.119522H4.83186V0.132804H4.76475V0.146082H4.71106V0.159364H4.65738V0.172642H4.60369V0.185924H4.55V0.199202H4.49631V0.212484H4.45605V0.225762H4.40236V0.239044H4.36209V0.252326H4.30841V0.265604H4.26814V0.278886H4.22788V0.292164H4.18761V0.305446H4.16077V0.318724H4.1205V0.332006H4.08024V0.345283H4.03997V0.358566H3.99971V0.371848H3.97286V0.385126H3.9326V0.398408H3.89233V0.411685H3.86549V0.424968H3.82522V0.438245H3.79838V0.451528H3.75811V0.464805H3.73127V0.478087H3.70443V0.49137H3.67758V0.504647H3.63732V0.517929H3.61047V0.531207H3.58363V0.544489H3.55678V0.557767H3.52994V0.571049H3.48968V0.584327H3.46283V0.597609H3.43599V0.610891H3.40914V0.624169H3.3823V0.637451H3.35546V0.650729H3.32861V0.664011H3.30177V0.677289H3.28835V0.690571H3.2615V0.703853H3.23466V0.717131H3.20782V0.730413H3.18097V0.743691H3.15413V0.756973H3.14071V0.770251H3.11386V0.783533H3.08702V0.796811H3.06018V0.810093H3.04676V0.823375H3.01991V0.836653H2.99307V0.849935H2.96622V0.863213H2.9528V0.876495H2.92596V0.889773H2.91254V0.903055H2.88569V0.916333H2.85885V0.929615H2.84543V0.942897H2.81858V0.956175H2.80516V0.969457H2.77832V0.982735H2.7649V0.996017H2.73805V1.00929H2.72463V1.02258H2.69779V1.03585H2.68437V1.04914H2.65752V1.06242H2.6441V1.0757H2.61726V1.08898H2.60383V1.10226H2.59041V1.11554H2.56357V1.12882H2.55015V1.1421H2.5233V1.15538H2.50988V1.16866H2.49646V1.18194H2.46962V1.19522H2.45619V1.2085H2.44277V1.22178H2.41593V1.23506H2.40251V1.24834H2.38909V1.26162H2.36224V1.2749H2.34882V1.28818H2.3354V1.30146H2.32198V1.31474H2.29513V1.32802H2.28171V1.3413H2.26829V1.35458H2.25487V1.36786H2.22802V1.38114H2.2146V1.39442H2.20118V1.4077H2.18776V1.42098H2.17434V1.43426H2.14749V1.44754H2.13407V1.46082H2.12065V1.4741H2.10723V1.48738H2.09381V1.50066H2.08038V1.51394H2.06696V1.52722H2.04012V1.54051H2.0267V1.55378H2.01327V1.56707H1.99985V1.58034H1.98643V1.59363H1.97301V1.6069H1.95959V1.62019H1.94617V1.63346H1.93274V1.64675H1.91932V1.66003H1.9059V1.67331H1.89248V1.68659H1.87906V1.69987H1.86563V1.71315H1.83879V1.72643H1.82537V1.73971H1.81195V1.75299H1.79853V1.76627H1.7851V1.77955H1.77168V1.79283H1.75826V1.80611H1.74484V1.81939H1.73142V1.84595H1.71799V1.85923H1.70457V1.87251H1.69115V1.88579H1.67773V1.89907H1.66431V1.91235H1.65089V1.92563H1.63746V1.93891H1.62404V1.95219H1.61062V1.96547H1.5972V1.97875H1.58378V1.99203H1.57035V2.00531H1.55693V2.01859H1.54351V2.04515H1.53009V2.05843H1.51667V2.07171H1.50324V2.08499H1.48982V2.09827H1.4764V2.11156H1.46298V2.13812H1.44956V2.15139H1.43614V2.16468H1.42271V2.17795H1.40929V2.19124H1.39587V2.20451H1.38245V2.23108H1.36903V2.24436H1.3556V2.25764H1.34218V2.27092H1.32876V2.29748H1.31534V2.31076H1.30192V2.32404H1.2885V2.3506H1.27507V2.36388H1.26165V2.37716H1.24823V2.39044H1.23481V2.417H1.22139V2.43028H1.20796V2.44356H1.19454V2.47012H1.18112V2.4834H1.1677V2.50996H1.15428V2.52324H1.14086V2.53652H1.12743V2.56308H1.11401V2.57636H1.10059V2.60292H1.08717V2.6162H1.07375V2.62948H1.06032V2.65604H1.0469V2.66932H1.03348V2.69588H1.02006V2.70917H1.00664V2.73572H0.993215V2.749H0.979794V2.77556H0.966372V2.80212H0.95295V2.8154H0.939528V2.84196H0.926106V2.85525H0.912684V2.88181H0.899263V2.89508H0.885841V2.92164H0.872419V2.94821H0.858997V2.96149H0.845575V2.98805H0.832153V3.01461H0.818732V3.04117H0.80531V3.05445H0.791888V3.08101H0.778466V3.10757H0.765044V3.13413H0.751622V3.14741H0.738201V3.17397H0.724779V3.20053H0.711357V3.22709H0.697935V3.25365H0.684513V3.28021H0.671092V3.30677H0.65767V3.33333H0.644248V3.35989H0.630826V3.38645H0.617404V3.41301H0.603982V3.43957H0.590561V3.46613H0.577139V3.49269H0.563717V3.51926H0.550295V3.54582H0.536873V3.58566H0.523451V3.61222H0.51003V3.63878H0.496608V3.66534H0.483186V3.6919H0.469764V3.73174H0.456342V3.7583H0.44292V3.79814H0.429499V3.8247H0.416077V3.86454H0.402655V3.90438H0.389233V3.93094H0.375811V3.97078H0.362389V3.99735H0.348968V4.03718H0.335546V4.07703H0.322124V4.11687H0.308702V4.15671H0.29528V4.19655H0.281858V4.23639H0.268437V4.27623H0.255015V4.32935H0.241593V4.36919H0.228171V4.42231H0.214749V4.46215H0.201327V4.51527H0.187906V4.56839H0.174484V4.62151H0.161062V4.67463H0.14764V4.74104H0.134218V4.79416H0.120796V4.86056H0.107375V4.92696H0.0939528V5.00664H0.080531V5.07304H0.0671091V5.166H0.0536873V5.25896H0.0402655V5.36521H0.0268437V5.49801H0.0134218V5.67065H0V34.3293H0.0134218V34.502H0.0268437V34.6215H0.0402655V34.7278H0.0536873V34.834H0.0671091V34.9137H0.080531V34.9934H0.0939528V35.0598H0.107375V35.1394H0.120796V35.2058H0.134218V35.259H0.14764V35.3121H0.161062V35.3785H0.174484V35.4316H0.187906V35.4847H0.201327V35.5246H0.214749V35.5777H0.228171V35.6175H0.241593V35.6707H0.255015V35.7105H0.268437V35.7636H0.281858V35.8034H0.29528V35.83H0.308702V35.8699H0.322124V35.9097H0.335546V35.9495H0.348968V35.9894H0.362389V36.0292H0.375811V36.0691H0.389233V36.0956H0.402655V36.1355H0.416077V36.162H0.429499V36.2019H0.44292V36.2284H0.456342V36.2683H0.469764V36.2948H0.483186V36.3214H0.496608V36.3612H0.51003V36.3878H0.523451V36.4143H0.536873V36.4409H0.550295V36.4675H0.563717V36.5073H0.577139V36.5339H0.590561V36.5604H0.603982V36.587H0.617404V36.6135H0.630826V36.6401H0.644248V36.6667H0.65767V36.6932H0.671092V36.7198H0.684513V36.7463H0.697935V36.7729H0.711357V36.7995H0.724779V36.826H0.738201V36.8393H0.751622V36.8659H0.765044V36.8924H0.778466V36.919H0.791888V36.9323H0.80531V36.9588H0.818732V36.9854H0.832153V37.0119H0.845575V37.0252H0.858997V37.0518H0.872419V37.0784H0.885841V37.0916H0.899263V37.1182H0.912684V37.1315H0.926106V37.158H0.939528V37.1846H0.95295V37.1979H0.966372V37.2244H0.979794V37.2377H0.993215V37.2643H1.00664V37.2776H1.02006V37.3041H1.03348V37.3174H1.0469V37.344H1.06032V37.3572H1.07375V37.3838H1.08717V37.3971H1.10059V37.4236H1.11401V37.4369H1.12743V37.4502H1.14086V37.4768H1.15428V37.49H1.1677V37.5166H1.18112V37.5299H1.19454V37.5432H1.20796V37.5697H1.22139V37.583H1.23481V37.5963H1.24823V37.6228H1.26165V37.6361H1.27507V37.6494H1.2885V37.6627H1.30192V37.6892H1.31534V37.7025H1.32876V37.7158H1.34218V37.7291H1.3556V37.7556H1.36903V37.7689H1.38245V37.7822H1.39587V37.7955H1.40929V37.822H1.42271V37.8353H1.43614V37.8486H1.44956V37.8619H1.46298V37.8752H1.4764V37.8884H1.48982V37.915H1.50324V37.9283H1.51667V37.9416H1.53009V37.9548H1.54351V37.9681H1.55693V37.9814H1.57035V37.9947H1.58378V38.0212H1.5972V38.0345H1.61062V38.0478H1.62404V38.0611H1.63746V38.0744H1.65089V38.0876H1.66431V38.1009H1.67773V38.1142H1.69115V38.1275H1.70457V38.1408H1.71799V38.154H1.73142V38.1673H1.74484V38.1806H1.75826V38.1939H1.77168V38.2072H1.7851V38.2205H1.79853V38.2337H1.81195V38.247H1.82537V38.2603H1.83879V38.2736H1.85221V38.2868H1.86563V38.3001H1.87906V38.3134H1.89248V38.3267H1.9059V38.34H1.91932V38.3532H1.93274V38.3665H1.94617V38.3798H1.95959V38.3931H1.97301V38.4064H1.98643V38.4197H1.99985V38.4329H2.0267V38.4462H2.04012V38.4595H2.05354V38.4728H2.06696V38.4861H2.08038V38.4993H2.09381V38.5126H2.10723V38.5259H2.13407V38.5392H2.14749V38.5525H2.16091V38.5657H2.17434V38.579H2.18776V38.5923H2.20118V38.6056H2.22802V38.6189H2.24145V38.6321H2.25487V38.6454H2.26829V38.6587H2.29513V38.672H2.30855V38.6853H2.32198V38.6985H2.3354V38.7118H2.36224V38.7251H2.37566V38.7384H2.38909V38.7517H2.40251V38.7649H2.42935V38.7782H2.44277V38.7915H2.45619V38.8048H2.48304V38.8181H2.49646V38.8313H2.50988V38.8446H2.53673V38.8579H2.55015V38.8712H2.57699V38.8845H2.59041V38.8977H2.60383V38.911H2.63068V38.9243H2.6441V38.9376H2.67094V38.9509H2.68437V38.9641H2.71121V38.9774H2.72463V38.9907H2.75148V39.004H2.7649V39.0173H2.79174V39.0305H2.80516V39.0438H2.83201V39.0571H2.84543V39.0704H2.87227V39.0837H2.89912V39.0969H2.91254V39.1102H2.93938V39.1235H2.9528V39.1368H2.97965V39.1501H3.00649V39.1633H3.01991V39.1766H3.04676V39.1899H3.0736V39.2032H3.10044V39.2165H3.11386V39.2297H3.14071V39.243H3.16755V39.2563H3.1944V39.2696H3.20782V39.2829H3.23466V39.2961H3.2615V39.3094H3.28835V39.3227H3.31519V39.336H3.34204V39.3493H3.36888V39.3626H3.39572V39.3758H3.42257V39.3891H3.44941V39.4024H3.47625V39.4157H3.5031V39.4289H3.52994V39.4422H3.57021V39.4555H3.59705V39.4688H3.62389V39.4821H3.65074V39.4953H3.67758V39.5086H3.71785V39.5219H3.74469V39.5352H3.77153V39.5485H3.8118V39.5617H3.83864V39.575H3.87891V39.5883H3.90575V39.6016H3.94602V39.6149H3.97286V39.6282H4.01313V39.6414H4.05339V39.6547H4.09366V39.668H4.13392V39.6813H4.17419V39.6946H4.21445V39.7078H4.2413V39.7211H4.28156V39.7344H4.33525V39.7477H4.37552V39.761H4.4292V39.7742H4.46947V39.7875H4.52316V39.8008H4.56342V39.8141H4.61711V39.8274H4.6708V39.8406H4.73791V39.8539H4.79159V39.8672H4.84528V39.8805H4.91239V39.8938H4.99292V39.907H5.06003V39.9203H5.14056V39.9336H5.22109V39.9469H5.32847V39.9602H5.42242V39.9734H5.55664V39.9867H5.73112ZM9.84182 33.883C9.79972 33.9903 9.75564 34.1025 9.70881 34.2216C9.90191 34.1376 10.1077 34.0632 10.316 33.988C10.7952 33.8149 11.2875 33.6371 11.6681 33.3256C12.3347 32.7804 13.0491 32.6057 13.8406 32.5166C13.8987 32.5101 13.9585 32.5092 14.0181 32.5082C14.1249 32.5066 14.2312 32.5049 14.3262 32.4712C15.3043 32.1242 16.2788 31.7666 17.2491 31.3986C17.4394 31.3264 17.6597 31.2333 17.7752 31.0818C18.0356 30.7403 18.2856 30.3908 18.5356 30.0413C18.9221 29.5011 19.3085 28.961 19.7324 28.4514C20.1669 27.9292 20.695 27.4518 21.2641 27.0779C21.4834 26.9338 21.7127 26.8039 21.9415 26.6742C22.6026 26.2996 23.2607 25.9266 23.6682 25.2176C23.735 25.1015 23.8582 25.0187 23.9828 24.935C24.057 24.8852 24.1317 24.835 24.1952 24.7773C24.2579 24.7202 24.33 24.6643 24.4027 24.608C24.5918 24.4612 24.7847 24.3117 24.826 24.1308C24.9508 23.5847 25.2792 23.2243 25.6245 22.8453C25.6893 22.7742 25.7547 22.7024 25.8195 22.6287C26.204 22.1903 26.4714 21.6745 26.4521 20.9526C26.4211 19.8016 26.6396 18.6301 26.8734 17.4915C26.9537 17.1003 27.1154 16.7264 27.2774 16.3519C27.4181 16.0267 27.559 15.701 27.647 15.3629C28.2354 13.1034 29.423 11.1519 30.7343 9.25735L30.7575 9.22382C31.1387 8.67374 31.1416 8.66957 30.807 8.12973L30.273 8.59093C29.7687 9.02646 29.263 9.46322 28.7574 9.89998C28.7938 9.61008 28.9266 9.36678 29.0805 9.1373C29.1963 8.96452 29.3193 8.79555 29.4422 8.62666C29.6834 8.29524 29.9245 7.96408 30.1107 7.6049C30.3076 7.22546 30.4376 6.81159 30.5673 6.39848C30.613 6.25293 30.6587 6.10743 30.7073 5.96359C30.7241 5.91386 30.7172 5.85629 30.7049 5.75345C30.6971 5.68907 30.6873 5.60689 30.6798 5.49786C30.5349 5.71843 30.4135 5.94268 30.2989 6.15434C30.0645 6.58751 29.8585 6.96802 29.5375 7.15643C28.6739 7.6632 28.0889 8.37462 27.502 9.11473C27.2843 9.38927 27.0913 9.68289 26.8982 9.97653C26.8155 10.1023 26.7328 10.2281 26.6481 10.3524C26.5702 10.4669 26.4955 10.5841 26.4207 10.7012L26.4204 10.7017C26.2594 10.9541 26.0984 11.2064 25.9054 11.4319C25.8332 11.5162 25.7546 11.5965 25.6764 11.6765C25.3449 12.0154 25.0211 12.3464 25.2258 12.937C25.2565 13.0256 25.1725 13.1601 25.0972 13.2808C25.0782 13.3112 25.0598 13.3407 25.0438 13.3684C24.8067 13.7813 24.5675 14.1931 24.3283 14.6049C24.1103 14.9801 23.8921 15.3558 23.6758 15.7319C23.6305 15.8105 23.5986 15.9033 23.587 15.9929C23.5205 16.5106 23.4233 16.9908 22.9836 17.3738C22.8092 17.5256 22.7621 17.8688 22.7396 18.1319C22.7127 18.4438 22.7185 18.7587 22.7243 19.0734C22.7267 19.2057 22.7291 19.3382 22.7291 19.4702L22.5746 19.487L22.5581 19.4539C22.4223 19.1822 22.2867 18.9109 22.1559 18.6491C22.0036 18.9548 21.8557 19.2575 21.7091 19.5573L21.7089 19.5578C21.375 20.2409 21.0485 20.909 20.6953 21.5631C20.2838 22.3253 19.5901 22.7797 18.803 23.1378C17.6106 23.6803 16.8858 24.6295 16.2178 25.7576C16.116 25.9295 16.0169 26.1078 15.9169 26.2877C15.2803 27.4333 14.6052 28.6483 12.9504 28.7242C12.9168 28.7258 12.8842 28.7507 12.8315 28.791C12.7994 28.8155 12.7599 28.8457 12.7081 28.8798H13.5306C13.3813 29.1279 13.2455 29.3715 13.1138 29.6079C12.8279 30.1209 12.561 30.5998 12.2165 31.0156C11.8174 31.4974 11.3474 31.9219 10.8775 32.3464C10.669 32.5347 10.4605 32.723 10.2583 32.9163C10.2253 32.9479 10.1956 32.9881 10.1789 33.03C10.0709 33.2994 9.96488 33.5696 9.84182 33.883ZM24.5063 9.6471C24.6844 9.35662 24.8624 9.06615 25.0363 8.77356C25.0113 8.75623 24.9862 8.73893 24.9612 8.72163C24.9362 8.70433 24.9112 8.68704 24.8861 8.66971C24.7457 8.86916 24.6052 9.06861 24.4648 9.26807L24.3922 9.37115C24.2397 9.58767 24.0873 9.80418 23.9348 10.0207C23.9225 10.0125 23.9103 10.0043 23.898 9.99616L23.8758 9.98133C23.8561 9.96821 23.8365 9.9551 23.8168 9.94195C23.9741 9.6255 24.1314 9.30905 24.2887 8.9926L24.5083 8.55072C24.7388 8.08697 24.9693 7.62323 25.1998 7.15948C24.9324 7.22349 24.801 7.36944 24.6715 7.51698C24.3365 7.89864 24.0016 8.28042 23.6667 8.6622L23.6655 8.66361C23.2102 9.1827 22.7549 9.70179 22.2992 10.2206C22.0317 10.525 21.7619 10.8277 21.4921 11.1303L21.4917 11.1307C20.8098 11.8955 20.1279 12.6603 19.4834 13.4548C19.2153 13.7853 19.0828 14.2412 18.9588 14.6676C18.9508 14.6953 18.9428 14.7228 18.9348 14.7502C18.7496 15.3838 18.3095 15.7913 17.8489 16.2178C17.8342 16.2314 17.8194 16.2451 17.8046 16.2588C17.5658 16.4802 17.3536 16.732 17.1419 16.9834C16.8707 17.3053 16.6001 17.6264 16.2752 17.8817C16.2279 17.9189 16.1805 17.9561 16.1332 17.9932C14.3352 19.4048 12.5503 20.806 11.9068 23.1073C11.9747 23.0473 12.0516 22.9796 12.1327 22.908L12.2076 22.842C12.2619 22.7941 12.3174 22.745 12.373 22.696C12.3939 22.7066 12.4149 22.7172 12.4358 22.7278C12.4652 22.7426 12.4945 22.7575 12.5239 22.7724C12.4779 22.8889 12.4303 23.0049 12.3828 23.1209C12.2795 23.3728 12.1763 23.6247 12.0887 23.8818C11.8878 24.4718 11.5415 24.9803 11.193 25.4922C10.7606 26.1271 10.3247 26.7672 10.1582 27.5746C9.95716 28.5498 9.54632 29.5898 8.73033 30.3382C8.71541 30.3519 8.71621 30.3824 8.71742 30.4283C8.71813 30.4554 8.71899 30.4878 8.71685 30.5254C9.22677 29.9743 9.72231 29.4386 10.2134 28.9078L10.8722 28.1957C10.9331 28.2447 10.9941 28.2936 11.0551 28.3425C10.8566 28.7011 10.6581 29.0598 10.4596 29.4184L10.1529 29.9725L10.2229 30.0266C10.253 30.0498 10.2832 30.0731 10.3134 30.0964C10.406 29.9901 10.498 29.8832 10.5899 29.7762C10.7879 29.5459 10.9859 29.3155 11.1913 29.0918C11.6084 28.6372 12.0214 28.1785 12.4344 27.7198C13.4991 26.5372 14.5641 25.3542 15.6998 24.2426C16.4811 23.4779 17.4522 22.8244 18.4552 22.3826C19.3794 21.9754 19.7079 21.2054 20.0211 20.4712C20.0441 20.4172 20.067 20.3635 20.0901 20.3101C20.195 20.0673 20.2891 19.8203 20.383 19.5742C20.7174 18.6968 21.0477 17.8301 21.8461 17.2034C21.961 17.1133 22.0496 16.9421 22.0738 16.796C22.1375 16.4148 22.1833 16.0308 22.2263 15.6702L22.2264 15.6696L22.2267 15.6669C22.2423 15.5366 22.2575 15.4094 22.273 15.2864C21.7716 15.27 21.9191 14.8744 22.0218 14.6251C22.0373 14.5873 22.0529 14.5495 22.0685 14.5117L22.1078 14.4161C22.4901 13.4868 22.8735 12.5547 23.3354 11.6639C23.6926 10.9747 24.0995 10.3109 24.5063 9.6471ZM29.0451 17.6528C29.3534 18.3255 29.581 18.8218 29.8862 19.4874C29.9004 19.1835 29.9144 18.8978 29.9278 18.6247C29.9575 18.0215 29.9841 17.4793 30.0031 16.937C30.0224 16.3848 30.261 15.9809 30.7662 15.6999C30.8439 15.9801 30.9146 16.2354 31.0154 16.5994L31.0559 16.7458C31.1029 16.5224 31.1251 16.3022 31.1466 16.0895C31.199 15.5704 31.2469 15.0967 31.6392 14.7325V17.0319C31.7059 17.0075 31.78 16.9805 31.8761 16.9455L32.0629 16.8774C32.1294 16.8532 32.2043 16.8259 32.2899 16.7947C31.9765 17.3682 31.7689 17.9573 31.5658 18.5334C31.2808 19.3419 31.0048 20.125 30.4582 20.804C30.1452 21.1927 30.0135 21.7985 29.979 22.3167C29.9117 23.3292 29.3565 24.0098 28.6542 24.64C28.3018 24.9562 27.9524 25.2757 27.603 25.5952C27.1778 25.9841 26.7524 26.3732 26.3217 26.7562C25.6487 27.3547 24.97 27.947 24.2912 28.5394C23.9919 28.8006 23.6923 29.062 23.3935 29.3238C23.3773 29.338 23.3575 29.3515 23.3378 29.3651C23.2949 29.3945 23.252 29.4241 23.2445 29.4607C23.1495 29.9285 22.8114 30.0505 22.474 30.1723C22.2225 30.2631 21.9714 30.3537 21.8215 30.5872C21.7804 30.5472 21.7394 30.507 21.6983 30.4668C21.7148 30.4327 21.7292 30.3967 21.7436 30.3607C21.7745 30.2831 21.8055 30.2055 21.858 30.1469C22.0906 29.8873 22.331 29.6335 22.5714 29.3797C23.0672 28.8563 23.5629 28.333 23.9893 27.7592C24.4633 27.1214 24.8413 26.411 25.2176 25.7038L25.2179 25.7032C25.3012 25.5467 25.3845 25.39 25.4686 25.2346L25.5477 25.0887C26.0896 24.0884 26.6327 23.086 27.1058 22.0535C27.4652 21.2693 27.7875 20.4686 28.1099 19.6678C28.2836 19.2363 28.4575 18.8044 28.637 18.3755C28.6917 18.2446 28.766 18.1216 28.864 17.9593C28.9172 17.8712 28.9773 17.7716 29.0451 17.6528ZM7.33017 26.2993C7.32059 26.3247 7.31101 26.3502 7.2998 26.3742L7.38326 26.4473C7.40695 26.468 7.43065 26.4888 7.45435 26.5095C7.5129 26.4385 7.5725 26.3681 7.63211 26.2978C7.76138 26.1453 7.89066 25.9928 8.0091 25.8325C8.23716 25.5239 8.48049 25.229 8.72388 24.934C9.26182 24.282 9.8001 23.6296 10.1746 22.8285C10.5223 22.0851 11.1026 21.4416 11.6764 20.8053C11.8348 20.6298 11.9926 20.4547 12.1449 20.2783C12.4408 19.9357 12.7603 19.6125 13.0797 19.2893C13.4768 18.8876 13.8736 18.4861 14.2245 18.0481C14.8435 17.2753 15.4092 16.4604 15.9746 15.6459L15.975 15.6454C16.1526 15.3895 16.3302 15.1336 16.5094 14.8791C16.6223 14.7189 16.7132 14.5435 16.8041 14.368C16.8461 14.2871 16.8881 14.206 16.9322 14.1265L16.8766 14.0939C16.8619 14.0853 16.8472 14.0767 16.8325 14.0681C16.7491 14.1811 16.6658 14.294 16.5824 14.407C16.499 14.5199 16.4156 14.6329 16.3323 14.7458L16.3012 14.731C16.2788 14.7204 16.2566 14.7098 16.2343 14.6993C16.4521 14.0046 16.6701 13.3101 16.8881 12.6155C16.6814 12.7333 16.5611 12.8951 16.4442 13.0522C16.4007 13.1108 16.3576 13.1687 16.3108 13.2234C16.1682 13.39 16.0307 13.5649 15.8931 13.74C15.5281 14.2043 15.1617 14.6706 14.6944 14.9894C14.5788 15.0682 14.4624 15.1452 14.3466 15.2218C13.6487 15.6834 12.9685 16.1334 12.5708 16.9151C12.5641 16.9283 12.5296 16.9277 12.4944 16.9271C12.4778 16.9269 12.4611 16.9266 12.447 16.9277C12.4308 16.861 12.4148 16.7948 12.3933 16.7064C12.3734 16.6242 12.3488 16.5229 12.3152 16.384C12.0495 16.8385 11.7905 17.2775 11.5373 17.7066L11.537 17.7071C10.9896 18.635 10.4694 19.5167 9.96743 20.4086C9.54719 21.1552 9.29072 21.9738 9.03417 22.7927C8.66071 23.9847 8.28706 25.1774 7.40785 26.1495C7.37129 26.19 7.35074 26.2446 7.33017 26.2993Z" fill="white"/>
<path d="M50.6916 7.27968H54.6733V4.35007H43.1157V7.27968H47.0772V18.493H50.6916V7.27968Z" fill="white"/>
<path d="M59.3696 18.493H55.9391V8.69402H59.3696V18.493Z" fill="white"/>
<path d="M59.6147 5.82497C59.6147 6.85538 58.6958 7.66361 57.6544 7.66361C56.6131 7.66361 55.6941 6.85538 55.6941 5.82497C55.6941 4.79469 56.6131 3.98645 57.6544 3.98645C58.6958 3.98645 59.6147 4.79469 59.6147 5.82497Z" fill="white"/>
<path fill-rule="evenodd" clip-rule="evenodd" d="M70.1308 9.44157C70.5595 9.30013 70.9271 9.25976 71.6621 9.25976V6.55232C70.1715 6.57251 69.1506 7.11819 68.4359 7.96666C67.6804 7.62324 66.7002 7.38074 65.4956 7.38074C62.1262 7.38074 60.4723 8.9769 60.4723 11.0175C60.4723 12.1287 61.0645 13.0784 62.0242 13.6641C61.187 14.1896 60.6357 14.9371 60.6357 15.7049C60.6357 16.3918 60.942 17.0788 61.7179 17.5232C60.6969 17.9677 60.1455 18.7153 60.1455 19.6244C60.1455 21.2004 61.3912 22.3722 65.5362 22.3722C69.3956 22.3722 71.2947 21.0388 71.2947 18.8971C71.2947 16.9777 69.7426 15.6039 66.496 15.6039H64.7194C63.6577 15.6039 63.3514 15.3412 63.3514 14.8967C63.3514 14.6744 63.474 14.4724 63.6373 14.2906C64.2499 14.4926 64.9237 14.6138 65.7405 14.6138C69.0485 14.6138 70.6412 13.058 70.6412 11.0983C70.6412 10.4922 70.4983 9.92643 70.1308 9.44157ZM65.5772 12.3307C64.4948 12.3307 63.8824 11.7853 63.8824 10.957C63.8824 10.088 64.4949 9.52244 65.5976 9.52244C66.6798 9.52244 67.2924 10.0679 67.2924 10.9368C67.2924 11.8054 66.6594 12.3307 65.5772 12.3307ZM62.9839 19.0992C62.9839 18.7355 63.1472 18.4324 63.5352 18.1697H65.9243C67.2516 18.1697 67.7825 18.392 67.7825 19.0789C67.7825 19.7456 67.1289 20.1296 65.4138 20.1296C63.433 20.1296 62.9839 19.7456 62.9839 19.0992Z" fill="white"/>
<path fill-rule="evenodd" clip-rule="evenodd" d="M82.7504 13.3005V13.9066H75.2769C75.3789 15.4624 76.2979 16.2301 77.666 16.2301C78.8094 16.2301 79.4833 15.6644 79.9734 14.8967L82.6688 16.1696C81.6069 17.8263 79.9121 18.7758 77.4821 18.7758C73.9292 18.7758 71.7442 16.3918 71.7442 13.0784C71.7442 9.74462 73.7862 7.38074 77.2779 7.38074C80.6677 7.38074 82.7504 9.64356 82.7504 13.3005ZM75.2565 11.8863H79.2791C79.1972 10.3911 78.442 9.76494 77.2575 9.76494C76.1957 9.76494 75.3586 10.3709 75.2565 11.8863Z" fill="white"/>
<path d="M90.8977 10.674V7.44143C90.6118 7.40093 90.3465 7.38074 90.0606 7.38074C88.9171 7.38074 87.8758 7.92616 87.1203 9.42138V7.6838H83.8326V18.493H87.2631V14.2906C87.2631 11.3408 88.57 10.6538 90.2241 10.6538C90.3669 10.6538 90.5098 10.6538 90.8977 10.674Z" fill="white"/>
<path fill-rule="evenodd" clip-rule="evenodd" d="M59.7579 28.3934C59.7579 33.9292 56.0618 35.6668 52.5905 35.6668H47.1384V21.5239H51.9574C56.021 21.5239 59.7579 23.3019 59.7579 28.3934ZM50.7324 24.3726V32.818H52.5905C54.265 32.818 56.0414 32.03 56.0414 28.3934C56.0414 25.8679 54.9184 24.3726 52.0595 24.3726H50.7324Z" fill="white"/>
<path fill-rule="evenodd" clip-rule="evenodd" d="M70.8254 33.2626V27.9689C70.8254 25.8072 69.4981 24.5544 66.0882 24.5544C63.025 24.5544 61.2282 25.7668 61.1465 28.1105H64.536C64.577 27.2214 64.9853 26.8578 66.0268 26.8578C67.1293 26.8578 67.3949 27.2012 67.3949 28.1711V28.6559L65.3325 28.8984C61.9632 29.3227 60.7177 30.5551 60.7177 32.6361C60.7177 34.5555 62.0246 35.9497 64.332 35.9497C65.6184 35.9497 66.721 35.586 67.4765 34.596C67.5583 34.9798 67.6808 35.3436 67.8645 35.6668H71.193C70.8867 34.899 70.8254 34.1716 70.8254 33.2626ZM64.2095 32.2725C64.2095 31.4845 64.7198 31.0603 66.1288 30.8582L67.3949 30.6764V31.6259C67.3949 32.6766 66.5372 33.404 65.455 33.404C64.6382 33.404 64.2095 32.9797 64.2095 32.2725Z" fill="white"/>
<path d="M76.7266 25.1202H79.279V27.5042H76.7266V31.9491C76.7266 32.8381 76.992 33.2422 77.9517 33.2422C78.5032 33.2422 78.9319 33.1615 79.4423 33.0402V35.586C78.7276 35.8082 77.8905 35.9497 76.9715 35.9497C74.2149 35.9497 73.2961 34.6566 73.2961 32.4745V27.5042H71.826V25.1202H73.2961V22.332H76.7266V25.1202Z" fill="white"/>
<path fill-rule="evenodd" clip-rule="evenodd" d="M91 31.0805V30.4744C91 26.8173 88.9172 24.5544 85.5275 24.5544C82.0358 24.5544 79.994 26.9183 79.994 30.2521C79.994 33.5656 82.1788 35.9497 85.7317 35.9497C88.1617 35.9497 89.8565 35.0002 90.9184 33.3433L88.223 32.0704C87.7329 32.8381 87.0591 33.404 85.9155 33.404C84.5475 33.404 83.6285 32.6361 83.5263 31.0805H91ZM87.5287 29.06H83.5061C83.6082 27.5448 84.4453 26.9386 85.5071 26.9386C86.6915 26.9386 87.447 27.5648 87.5287 29.06Z" fill="white"/>
</svg>
