<svg width="137" height="60" viewBox="0 0 137 60" fill="none" xmlns="http://www.w3.org/2000/svg">
  <path fill-rule="evenodd" clip-rule="evenodd" d="M8.62817 59.9801V60H52.2338V59.9801H52.4965V59.9602H52.6985V59.9402H52.8602V59.9203H53.0218V59.9004H53.1431V59.8805H53.2441V59.8606H53.3653V59.8406H53.4664V59.8207H53.5674V59.8008H53.6482V59.7809H53.7493V59.761H53.8301V59.741H53.9109V59.7211H53.9917V59.7012H54.0726V59.6813H54.1332V59.6614H54.214V59.6414H54.2746V59.6215H54.3555V59.6016H54.4161V59.5817H54.4767V59.5618H54.5373V59.5418H54.5979V59.5219H54.6586V59.502H54.7192V59.4821H54.7798V59.4622H54.8202V59.4422H54.8808V59.4223H54.9212V59.4024H54.9819V59.3825H55.0425V59.3625H55.0829V59.3426H55.1435V59.3227H55.1839V59.3028H55.2445V59.2829H55.285V59.2629H55.3254V59.243H55.3658V59.2231H55.4062V59.2032H55.4668V59.1833H55.5072V59.1633H55.5476V59.1434H55.5881V59.1235H55.6285V59.1036H55.6689V59.0837H55.7093V59.0637H55.7497V59.0438H55.7901V59.0239H55.8305V59.004H55.871V58.9841H55.9114V58.9641H55.9518V58.9442H55.9922V58.9243H56.0326V58.9044H56.073V58.8845H56.0932V58.8645H56.1336V58.8446H56.174V58.8247H56.2145V58.8048H56.2347V58.7849H56.2751V58.7649H56.3155V58.745H56.3559V58.7251H56.3761V58.7052H56.4165V58.6852H56.4569V58.6653H56.4771V58.6454H56.5176V58.6255H56.5378V58.6056H56.5782V58.5857H56.5984V58.5657H56.6388V58.5458H56.6792V58.5259H56.6994V58.506H56.7398V58.4861H56.76V58.4661H56.8004V58.4462H56.8207V58.4263H56.8611V58.4064H56.8813V58.3864H56.9015V58.3665H56.9419V58.3466H56.9621V58.3267H57.0025V58.3068H57.0227V58.2869H57.0429V58.2669H57.0833V58.247H57.1035V58.2271H57.144V58.2072H57.1642V58.1872H57.1844V58.1673H57.2248V58.1474H57.245V58.1275H57.2652V58.1076H57.2854V58.0876H57.3258V58.0677H57.346V58.0478H57.3662V58.0279H57.4066V58.008H57.4268V57.9881H57.447V57.9681H57.4673V57.9482H57.5077V57.9283H57.5279V57.9084H57.5481V57.8884H57.5683V57.8685H57.5885V57.8486H57.6087V57.8287H57.6491V57.8088H57.6693V57.7888H57.6895V57.7689H57.7097V57.749H57.7299V57.7291H57.7502V57.7092H57.7906V57.6892H57.8108V57.6693H57.831V57.6494H57.8512V57.6295H57.8714V57.6096H57.8916V57.5896H57.9118V57.5697H57.932V57.5498H57.9522V57.5299H57.9724V57.51H57.9926V57.49H58.0128V57.4701H58.033V57.4502H58.0532V57.4303H58.0937V57.4104H58.1139V57.3904H58.1341V57.3705H58.1543V57.3506H58.1745V57.3307H58.1947V57.3108H58.2149V57.2908H58.2351V57.2709H58.2553V57.2311H58.2755V57.2112H58.2957V57.1912H58.3159V57.1713H58.3361V57.1514H58.3563V57.1315H58.3765V57.1115H58.3968V57.0916H58.417V57.0717H58.4372V57.0518H58.4574V57.0319H58.4776V57.012H58.4978V56.992H58.518V56.9721H58.5382V56.9323H58.5584V56.9123H58.5786V56.8924H58.5988V56.8725H58.619V56.8526H58.6392V56.8327H58.6594V56.8127H58.6796V56.7729H58.6999V56.753H58.7201V56.7331H58.7403V56.7131H58.7605V56.6932H58.7807V56.6534H58.8009V56.6335H58.8211V56.6135H58.8413V56.5936H58.8615V56.5538H58.8817V56.5339H58.9019V56.5139H58.9221V56.494H58.9423V56.4542H58.9625V56.4343H58.9827V56.4143H59.0029V56.3745H59.0232V56.3546H59.0434V56.3347H59.0636V56.2948H59.0838V56.2749H59.104V56.255H59.1242V56.2151H59.1444V56.1952H59.1646V56.1554H59.1848V56.1355H59.205V56.1155H59.2252V56.0757H59.2454V56.0558H59.2656V56.0159H59.2858V55.996H59.306V55.9562H59.3263V55.9362H59.3465V55.8964H59.3667V55.8765H59.3869V55.8367H59.4071V55.8167H59.4273V55.7769H59.4475V55.757H59.4677V55.7171H59.4879V55.6773H59.5081V55.6574H59.5283V55.6175H59.5485V55.5976H59.5687V55.5578H59.5889V55.5179H59.6091V55.4781H59.6293V55.4582H59.6496V55.4183H59.6698V55.3785H59.69V55.3386H59.7102V55.3187H59.7304V55.2789H59.7506V55.239H59.7708V55.1992H59.791V55.1594H59.8112V55.1195H59.8314V55.0996H59.8516V55.0598H59.8718V55.0199H59.892V54.9801H59.9123V54.9402H59.9325V54.9004H59.9527V54.8606H59.9729V54.8207H59.9931V54.761H60.0133V54.7211H60.0335V54.6813H60.0537V54.6414H60.0739V54.6016H60.0941V54.5418H60.1143V54.502H60.1345V54.4622H60.1547V54.4223H60.1749V54.3625H60.1951V54.3227H60.2153V54.2629H60.2356V54.2231H60.2558V54.1633H60.276V54.1036H60.2962V54.0637H60.3164V54.004H60.3366V53.9442H60.3568V53.8845H60.377V53.8247H60.3972V53.7649H60.4174V53.7251H60.4376V53.6653H60.4578V53.6056H60.478V53.5259H60.4982V53.4661H60.5184V53.3865H60.5386V53.3267H60.5588V53.247H60.5791V53.1673H60.5993V53.0877H60.6195V53.008H60.6397V52.9283H60.6599V52.8287H60.6801V52.749H60.7003V52.6295H60.7205V52.5299H60.7407V52.4104H60.7609V52.3108H60.7811V52.1514H60.8013V51.992H60.8215V51.8327H60.8417V51.5737H60.8619V51.2351H60.8822V8.74502H60.8619V8.40637H60.8417V8.14741H60.8215V7.98805H60.8013V7.84861H60.7811V7.68924H60.7609V7.56972H60.7407V7.47012H60.7205V7.3506H60.7003V7.251H60.6801V7.1514H60.6599V7.07171H60.6397V6.99203H60.6195V6.89243H60.5993V6.81275H60.5791V6.75299H60.5588V6.67331H60.5386V6.61355H60.5184V6.53386H60.4982V6.4741H60.478V6.39442H60.4578V6.33466H60.4376V6.2749H60.4174V6.21514H60.3972V6.15538H60.377V6.09561H60.3568V6.03586H60.3366V5.9761H60.3164V5.93626H60.2962V5.87649H60.276V5.83665H60.2558V5.77689H60.2356V5.73705H60.2153V5.67729H60.1951V5.63745H60.1749V5.57769H60.1547V5.53785H60.1345V5.47809H60.1143V5.43825H60.0941V5.39841H60.0739V5.35857H60.0537V5.31873H60.0335V5.25896H60.0133V5.21912H59.9931V5.17928H59.9729V5.13944H59.9527V5.0996H59.9325V5.05976H59.9123V5.01992H59.892V4.98008H59.8718V4.94024H59.8516V4.9004H59.8314V4.86056H59.8112V4.82072H59.791V4.78088H59.7708V4.74103H59.7506V4.72112H59.7304V4.68128H59.7102V4.64144H59.69V4.6016H59.6698V4.58167H59.6496V4.54183H59.6293V4.50199H59.6091V4.46215H59.5889V4.44223H59.5687V4.40239H59.5485V4.36255H59.5283V4.34263H59.5081V4.30279H59.4879V4.28287H59.4677V4.24303H59.4475V4.22311H59.4273V4.18327H59.4071V4.14343H59.3869V4.1235H59.3667V4.08366H59.3465V4.06375H59.3263V4.0239H59.306V4.00398H59.2858V3.96414H59.2656V3.94422H59.2454V3.90438H59.2252V3.88447H59.205V3.86454H59.1848V3.8247H59.1646V3.80478H59.1444V3.76494H59.1242V3.74502H59.104V3.7251H59.0838V3.68526H59.0636V3.66534H59.0434V3.6255H59.0232V3.60558H59.0029V3.58566H58.9827V3.56574H58.9625V3.5259H58.9423V3.50598H58.9221V3.48605H58.9019V3.46614H58.8817V3.4263H58.8615V3.40637H58.8413V3.38646H58.8211V3.34662H58.8009V3.32669H58.7807V3.30677H58.7605V3.28685H58.7403V3.26693H58.7201V3.22709H58.6999V3.20717H58.6796V3.18725H58.6594V3.16733H58.6392V3.14741H58.619V3.12749H58.5988V3.10757H58.5786V3.06773H58.5584V3.04781H58.5382V3.02789H58.518V3.00797H58.4978V2.98805H58.4776V2.96813H58.4574V2.9482H58.4372V2.92829H58.417V2.90836H58.3968V2.86852H58.3765V2.84861H58.3563V2.82868H58.3361V2.80877H58.3159V2.78884H58.2957V2.76892H58.2755V2.749H58.2553V2.72908H58.2351V2.70917H58.2149V2.68924H58.1947V2.66933H58.1745V2.6494H58.1543V2.62948H58.1341V2.60956H58.1139V2.58964H58.0937V2.56972H58.0735V2.5498H58.0532V2.52988H58.033V2.50996H58.0128V2.49004H57.9926V2.47012H57.9724V2.4502H57.9522V2.43028H57.9118V2.41036H57.8916V2.39044H57.8714V2.37052H57.8512V2.3506H57.831V2.33068H57.8108V2.31076H57.7906V2.29084H57.7704V2.27091H57.7502V2.251H57.7097V2.23107H57.6895V2.21116H57.6693V2.19123H57.6491V2.17132H57.6289V2.15139H57.6087V2.13148H57.5885V2.11155H57.5481V2.09163H57.5279V2.07171H57.5077V2.05179H57.4875V2.03187H57.4673V2.01195H57.4268V1.99203H57.4066V1.97211H57.3864V1.95219H57.346V1.93227H57.3258V1.91235H57.3056V1.89243H57.2854V1.87251H57.245V1.85259H57.2248V1.83267H57.2046V1.81275H57.1844V1.79283H57.144V1.77291H57.1237V1.75299H57.0833V1.73306H57.0631V1.71315H57.0429V1.69323H57.0025V1.67331H56.9823V1.65339H56.9419V1.63347H56.9217V1.61355H56.9015V1.59363H56.8611V1.57371H56.8409V1.55378H56.8004V1.53387H56.7802V1.51394H56.7398V1.49403H56.7196V1.4741H56.6792V1.45419H56.659V1.43426H56.6186V1.41435H56.5782V1.39442H56.558V1.3745H56.5176V1.35458H56.4973V1.33466H56.4569V1.31474H56.4367V1.29482H56.3963V1.2749H56.3559V1.25498H56.3357V1.23506H56.2953V1.21514H56.2549V1.19522H56.2145V1.1753H56.1943V1.15538H56.1538V1.13546H56.1134V1.11554H56.073V1.09562H56.0528V1.0757H56.0124V1.05578H55.972V1.03586H55.9316V1.01593H55.8912V0.996017H55.8507V0.976094H55.8103V0.956177H55.7699V0.936254H55.7295V0.916337H55.6891V0.896414H55.6487V0.876491H55.6083V0.856574H55.5678V0.836651H55.5274V0.816734H55.4668V0.796811H55.4264V0.776894H55.386V0.756971H55.3456V0.737054H55.3052V0.717131H55.2445V0.697208H55.2041V0.677291H55.1435V0.657368H55.1031V0.637451H55.0425V0.617528H55.0021V0.597611H54.9415V0.577688H54.901V0.557772H54.8404V0.537848H54.8V0.517925H54.7394V0.498009H54.6788V0.478085H54.6181V0.458169H54.5575V0.438245H54.4969V0.418329H54.4363V0.398406H54.3757V0.378489H54.2948V0.358566H54.2342V0.338642H54.1534V0.318726H54.0928V0.298803H54.0119V0.278886H53.9513V0.258963H53.8705V0.239046H53.7695V0.219123H53.6886V0.199206H53.6078V0.179283H53.5068V0.15936H53.4058V0.139443H53.2845V0.11952H53.1835V0.099603H53.0622V0.0796798H52.9006V0.0597631H52.7591V0.0398399H52.5975V0.0199232H52.3348V0H8.54735V0.0199232H8.28466V0.0398399H8.12301V0.0597631H7.96136V0.0796798H7.79971V0.099603H7.69867V0.11952H7.57743V0.139443H7.4764V0.15936H7.35516V0.179283H7.27434V0.199206H7.1733V0.219123H7.09248V0.239046H7.01165V0.258963H6.93083V0.278886H6.85V0.298803H6.76917V0.318726H6.70856V0.338642H6.62773V0.358566H6.56711V0.378489H6.48628V0.398406H6.42566V0.418329H6.36505V0.438245H6.30443V0.458169H6.26401V0.478085H6.20339V0.498009H6.14277V0.517925H6.08215V0.537848H6.02153V0.557772H5.98112V0.577688H5.9205V0.597611H5.85988V0.617528H5.81947V0.637451H5.75885V0.657368H5.71844V0.677291H5.65782V0.697208H5.6174V0.717131H5.57699V0.737054H5.53658V0.756971H5.47596V0.776894H5.43555V0.796811H5.39513V0.816734H5.35472V0.836651H5.31431V0.856574H5.25369V0.876491H5.21327V0.896414H5.17286V0.916337H5.13245V0.936254H5.09204V0.956177H5.05162V0.976094H5.01121V0.996017H4.9708V1.01593H4.95059V1.03586H4.91018V1.05578H4.86976V1.0757H4.82935V1.09562H4.78894V1.11554H4.74853V1.13546H4.72832V1.15538H4.68791V1.1753H4.64749V1.19522H4.60708V1.21514H4.58687V1.23506H4.54646V1.25498H4.50605V1.2749H4.46563V1.29482H4.44543V1.31474H4.40501V1.33466H4.38481V1.35458H4.3444V1.3745H4.30398V1.39442H4.28378V1.41435H4.24336V1.43426H4.22316V1.45419H4.18274V1.4741H4.16254V1.49403H4.12212V1.51394H4.10192V1.53387H4.0615V1.55378H4.0413V1.57371H4.00089V1.59363H3.98068V1.61355H3.94026V1.63347H3.92006V1.65339H3.89985V1.67331H3.85944V1.69323H3.83923V1.71315H3.79882V1.73306H3.77861V1.75299H3.75841V1.77291H3.71799V1.79283H3.69779V1.81275H3.67758V1.83267H3.63717V1.85259H3.61696V1.87251H3.59676V1.89243H3.55634V1.91235H3.53614V1.93227H3.51593V1.95219H3.49572V1.97211H3.45531V1.99203H3.4351V2.01195H3.4149V2.03187H3.39469V2.05179H3.35428V2.07171H3.33407V2.09163H3.31386V2.11155H3.29366V2.13148H3.27345V2.15139H3.23304V2.17132H3.21283V2.19123H3.19263V2.21116H3.17242V2.23107H3.15221V2.251H3.13201V2.27091H3.1118V2.29084H3.07139V2.31076H3.05118V2.33068H3.03097V2.3506H3.01077V2.37052H2.99056V2.39044H2.97035V2.41036H2.95015V2.43028H2.92994V2.4502H2.90973V2.47012H2.88953V2.49004H2.86932V2.50996H2.84912V2.52988H2.82891V2.5498H2.8087V2.56972H2.76829V2.58964H2.74808V2.60956H2.72788V2.62948H2.70767V2.6494H2.68746V2.66933H2.66726V2.68924H2.64705V2.70917H2.62684V2.72908H2.60664V2.76892H2.58643V2.78884H2.56622V2.80877H2.54602V2.82868H2.52581V2.84861H2.5056V2.86852H2.4854V2.88845H2.46519V2.90836H2.44499V2.92829H2.42478V2.9482H2.40457V2.96813H2.38437V2.98805H2.36416V3.00797H2.34395V3.02789H2.32375V3.06773H2.30354V3.08765H2.28333V3.10757H2.26313V3.12749H2.24292V3.14741H2.22271V3.16733H2.20251V3.20717H2.1823V3.22709H2.16209V3.24701H2.14189V3.26693H2.12168V3.28685H2.10148V3.30677H2.08127V3.34662H2.06106V3.36653H2.04086V3.38646H2.02065V3.40637H2.00044V3.44621H1.98024V3.46614H1.96003V3.48605H1.93982V3.5259H1.91962V3.54582H1.89941V3.56574H1.8792V3.58566H1.859V3.6255H1.83879V3.64542H1.81858V3.66534H1.79838V3.70518H1.77817V3.7251H1.75796V3.76494H1.73776V3.78486H1.71755V3.80478H1.69735V3.84462H1.67714V3.86454H1.65693V3.90438H1.63673V3.9243H1.61652V3.94422H1.59631V3.98406H1.57611V4.00398H1.5559V4.04382H1.53569V4.06375H1.51549V4.10359H1.49528V4.1235H1.47507V4.16334H1.45487V4.20318H1.43466V4.22311H1.41445V4.26295H1.39425V4.28287H1.37404V4.32271H1.35383V4.34263H1.33363V4.38247H1.31342V4.42231H1.29322V4.44223H1.27301V4.48207H1.2528V4.52191H1.2326V4.56175H1.21239V4.58167H1.19218V4.62151H1.17198V4.66135H1.15177V4.70119H1.13156V4.72112H1.11136V4.76096H1.09115V4.8008H1.07094V4.84064H1.05074V4.88048H1.03053V4.92032H1.01032V4.96016H0.990118V5H0.969912V5.03984H0.949705V5.07968H0.929499V5.11952H0.909292V5.15936H0.889086V5.1992H0.868879V5.23904H0.848673V5.27889H0.828466V5.31873H0.80826V5.37848H0.788053V5.41832H0.767847V5.45817H0.74764V5.49801H0.727434V5.53785H0.707227V5.59761H0.687021V5.63745H0.666814V5.69721H0.646608V5.73705H0.626401V5.79681H0.606195V5.85658H0.585988V5.89642H0.565782V5.95617H0.545575V5.99602H0.525369V6.05578H0.505162V6.11554H0.484956V6.1753H0.464749V6.23506H0.444543V6.29482H0.424336V6.35458H0.40413V6.41434H0.383923V6.49402H0.363717V6.55378H0.34351V6.63347H0.323304V6.69323H0.303097V6.77291H0.282891V6.85259H0.262684V6.93227H0.242478V7.01195H0.222271V7.11156H0.202065V7.19124H0.181858V7.29084H0.161652V7.39044H0.141445V7.50996H0.121239V7.60956H0.101032V7.749H0.080826V7.88845H0.0606195V8.04781H0.040413V8.24701H0.0202065V8.50597H0V51.494H0.0202065V51.753H0.040413V51.9323H0.0606195V52.0916H0.080826V52.251H0.101032V52.3705H0.121239V52.49H0.141445V52.5896H0.161652V52.7092H0.181858V52.8088H0.202065V52.8884H0.222271V52.9681H0.242478V53.0677H0.262684V53.1474H0.282891V53.2271H0.303097V53.2868H0.323304V53.3665H0.34351V53.4263H0.363717V53.506H0.383923V53.5657H0.40413V53.6454H0.424336V53.7052H0.444543V53.745H0.464749V53.8048H0.484956V53.8645H0.505162V53.9243H0.525369V53.9841H0.545575V54.0438H0.565782V54.1036H0.585988V54.1434H0.606195V54.2032H0.626401V54.243H0.646608V54.3028H0.666814V54.3426H0.687021V54.4024H0.707227V54.4422H0.727434V54.4821H0.74764V54.5418H0.767847V54.5817H0.788053V54.6215H0.80826V54.6614H0.828466V54.7012H0.848673V54.761H0.868879V54.8008H0.889086V54.8406H0.909292V54.8805H0.929499V54.9203H0.949705V54.9602H0.969912V55H0.990118V55.0398H1.01032V55.0797H1.03053V55.1195H1.05074V55.1594H1.07094V55.1992H1.09115V55.239H1.11136V55.259H1.13156V55.2988H1.15177V55.3386H1.17198V55.3785H1.19218V55.3984H1.21239V55.4382H1.2326V55.4781H1.2528V55.5179H1.27301V55.5378H1.29322V55.5777H1.31342V55.6175H1.33363V55.6374H1.35383V55.6773H1.37404V55.6972H1.39425V55.737H1.41445V55.7769H1.43466V55.7968H1.45487V55.8367H1.47507V55.8566H1.49528V55.8964H1.51549V55.9163H1.53569V55.9562H1.5559V55.9761H1.57611V56.0159H1.59631V56.0359H1.61652V56.0757H1.63673V56.0956H1.65693V56.1355H1.67714V56.1554H1.69735V56.1753H1.71755V56.2151H1.73776V56.2351H1.75796V56.2749H1.77817V56.2948H1.79838V56.3147H1.81858V56.3546H1.83879V56.3745H1.859V56.3944H1.8792V56.4343H1.89941V56.4542H1.91962V56.4741H1.93982V56.494H1.96003V56.5339H1.98024V56.5538H2.00044V56.5737H2.02065V56.5936H2.04086V56.6335H2.06106V56.6534H2.08127V56.6733H2.10148V56.6932H2.12168V56.7331H2.14189V56.753H2.16209V56.7729H2.1823V56.7928H2.20251V56.8127H2.22271V56.8327H2.24292V56.8725H2.26313V56.8924H2.28333V56.9123H2.30354V56.9323H2.32375V56.9522H2.34395V56.9721H2.36416V56.992H2.38437V57.0319H2.40457V57.0518H2.42478V57.0717H2.44499V57.0916H2.46519V57.1115H2.4854V57.1315H2.5056V57.1514H2.52581V57.1713H2.54602V57.1912H2.56622V57.2112H2.58643V57.2311H2.60664V57.251H2.62684V57.2709H2.64705V57.2908H2.66726V57.3108H2.68746V57.3307H2.70767V57.3506H2.72788V57.3705H2.74808V57.3904H2.76829V57.4104H2.7885V57.4303H2.8087V57.4502H2.82891V57.4701H2.84912V57.49H2.86932V57.51H2.88953V57.5299H2.90973V57.5498H2.92994V57.5697H2.95015V57.5896H2.97035V57.6096H2.99056V57.6295H3.01077V57.6494H3.05118V57.6693H3.07139V57.6892H3.09159V57.7092H3.1118V57.7291H3.13201V57.749H3.15221V57.7689H3.17242V57.7888H3.21283V57.8088H3.23304V57.8287H3.25324V57.8486H3.27345V57.8685H3.29366V57.8884H3.31386V57.9084H3.35428V57.9283H3.37448V57.9482H3.39469V57.9681H3.4149V57.9881H3.45531V58.008H3.47552V58.0279H3.49572V58.0478H3.51593V58.0677H3.55634V58.0876H3.57655V58.1076H3.59676V58.1275H3.61696V58.1474H3.65737V58.1673H3.67758V58.1872H3.69779V58.2072H3.7382V58.2271H3.75841V58.247H3.77861V58.2669H3.81903V58.2869H3.83923V58.3068H3.87965V58.3267H3.89985V58.3466H3.92006V58.3665H3.96047V58.3864H3.98068V58.4064H4.02109V58.4263H4.0413V58.4462H4.08171V58.4661H4.10192V58.4861H4.14233V58.506H4.16254V58.5259H4.20295V58.5458H4.22316V58.5657H4.26357V58.5857H4.28378V58.6056H4.32419V58.6255H4.3646V58.6454H4.38481V58.6653H4.42522V58.6852H4.44543V58.7052H4.48584V58.7251H4.52625V58.745H4.54646V58.7649H4.58687V58.7849H4.62729V58.8048H4.6677V58.8247H4.68791V58.8446H4.72832V58.8645H4.76873V58.8845H4.80914V58.9044H4.82935V58.9243H4.86976V58.9442H4.91018V58.9641H4.95059V58.9841H4.991V59.004H5.03142V59.0239H5.07183V59.0438H5.11224V59.0637H5.15266V59.0837H5.19307V59.1036H5.23348V59.1235H5.27389V59.1434H5.31431V59.1633H5.37493V59.1833H5.41534V59.2032H5.45575V59.2231H5.49617V59.243H5.53658V59.2629H5.5972V59.2829H5.63761V59.3028H5.67802V59.3227H5.73864V59.3426H5.77906V59.3625H5.83968V59.3825H5.88009V59.4024H5.94071V59.4223H5.98112V59.4422H6.04174V59.4622H6.10236V59.4821H6.16298V59.502H6.2236V59.5219H6.28422V59.5418H6.34484V59.5618H6.38525V59.5817H6.44587V59.6016H6.5267V59.6215H6.58732V59.6414H6.66814V59.6614H6.72876V59.6813H6.80959V59.7012H6.87021V59.7211H6.95103V59.741H7.03186V59.761H7.13289V59.7809H7.21372V59.8008H7.29454V59.8207H7.39558V59.8406H7.51681V59.8606H7.61785V59.8805H7.73909V59.9004H7.86032V59.9203H8.02198V59.9402H8.16342V59.9602H8.36549V59.9801H8.62817ZM14.8168 50.8246C14.7534 50.9854 14.6871 51.1538 14.6166 51.3324C14.9073 51.2064 15.2171 51.0948 15.5307 50.982C16.2521 50.7223 16.9933 50.4556 17.5663 49.9884C18.5698 49.1707 19.6454 48.9085 20.837 48.7749C20.9244 48.7651 21.0144 48.7637 21.1042 48.7623C21.2649 48.7598 21.4249 48.7574 21.5681 48.7067C23.0405 48.1862 24.5077 47.65 25.9684 47.0979C26.255 46.9896 26.5866 46.85 26.7605 46.6227C27.1525 46.1105 27.5289 45.5862 27.9053 45.062C28.4871 44.2516 29.0688 43.4415 29.707 42.677C30.3611 41.8938 31.1563 41.1776 32.013 40.6169C32.3432 40.4007 32.6883 40.2059 33.0328 40.0113C34.0281 39.4494 35.0188 38.89 35.6324 37.8265C35.7329 37.6522 35.9185 37.5281 36.1059 37.4026C36.2177 37.3278 36.3302 37.2525 36.4257 37.1659C36.5202 37.0803 36.6287 36.9964 36.7381 36.9119C37.0229 36.6919 37.3132 36.4675 37.3754 36.1962C37.5632 35.377 38.0577 34.8364 38.5775 34.268C38.6751 34.1613 38.7736 34.0537 38.8711 33.943C39.45 33.2854 39.8525 32.5117 39.8234 31.4289C39.7767 29.7024 40.1057 27.9452 40.4577 26.2372C40.5786 25.6504 40.8221 25.0896 41.066 24.5278C41.2778 24.0401 41.4899 23.5514 41.6224 23.0444C42.5083 19.6552 44.2961 16.7279 46.2703 13.886L46.3053 13.8357C46.8791 13.0106 46.8834 13.0044 46.3798 12.1946L45.5759 12.8864C44.8166 13.5397 44.0553 14.1948 43.2941 14.85C43.3489 14.4151 43.5489 14.0502 43.7805 13.706C43.9548 13.4468 44.14 13.1933 44.325 12.94C44.6882 12.4429 45.0511 11.9461 45.3315 11.4073C45.6279 10.8382 45.8236 10.2174 46.019 9.59772C46.0878 9.37939 46.1566 9.16114 46.2297 8.94539C46.2549 8.87079 46.2445 8.78444 46.226 8.63017C46.2144 8.53361 46.1996 8.41033 46.1883 8.24679C45.9701 8.57764 45.7873 8.91401 45.6149 9.23151C45.2619 9.88127 44.9519 10.452 44.4685 10.7346C43.1684 11.4948 42.2876 12.5619 41.4042 13.6721C41.0764 14.0839 40.7858 14.5243 40.4951 14.9648C40.3706 15.1535 40.2461 15.3422 40.1186 15.5287C40.0013 15.7004 39.8888 15.8761 39.7763 16.0518L39.7757 16.0526C39.5334 16.4311 39.291 16.8096 39.0004 17.1478C38.8917 17.2743 38.7734 17.3948 38.6557 17.5147C38.1566 18.0231 37.6692 18.5195 37.9774 19.4056C38.0235 19.5385 37.8971 19.7401 37.7836 19.9212C37.7551 19.9668 37.7273 20.011 37.7034 20.0526C37.3464 20.672 36.9862 21.2897 36.6261 21.9074C36.298 22.4702 35.9695 23.0337 35.6437 23.5978C35.5756 23.7157 35.5275 23.855 35.5101 23.9894C35.4099 24.7659 35.2636 25.4862 34.6017 26.0607C34.3392 26.2884 34.2683 26.8032 34.2343 27.1978C34.1939 27.6658 34.2026 28.138 34.2113 28.6102C34.2149 28.8086 34.2185 29.0072 34.2185 29.2054L33.986 29.2305L33.9611 29.1809C33.7566 28.7733 33.5524 28.3663 33.3555 27.9737C33.1263 28.4322 32.9036 28.8863 32.683 29.336C32.1803 30.3606 31.6884 31.3635 31.1567 32.3446C30.5371 33.488 29.4929 34.1695 28.3077 34.7067C26.5126 35.5205 25.4214 36.9442 24.4158 38.6364C24.2626 38.8942 24.1134 39.1616 23.9629 39.4316C23.0044 41.15 21.988 42.9724 19.4968 43.0863C19.4461 43.0887 19.397 43.1261 19.3177 43.1865C19.2694 43.2232 19.2099 43.2685 19.132 43.3197H20.3702C20.1455 43.6918 19.941 44.0573 19.7427 44.4119C19.3123 45.1814 18.9105 45.8998 18.3919 46.5234C17.791 47.2461 17.0835 47.8829 16.376 48.5196C16.0622 48.802 15.7483 49.0845 15.4437 49.3745C15.3941 49.4218 15.3494 49.4821 15.3242 49.5449C15.1617 49.9492 15.0021 50.3543 14.8168 50.8246ZM36.8942 14.4706C37.1622 14.0349 37.4303 13.5992 37.692 13.1603C37.6543 13.1343 37.6167 13.1084 37.579 13.0824C37.5413 13.0565 37.5036 13.0306 37.4659 13.0046C37.2544 13.3037 37.043 13.6029 36.8316 13.9021L36.7223 14.0567C36.4928 14.3815 36.2633 14.7063 36.0337 15.0311C36.0152 15.0188 35.9968 15.0065 35.9784 14.9942L35.9449 14.972C35.9153 14.9523 35.8857 14.9326 35.8561 14.9129C36.0929 14.4383 36.3297 13.9636 36.5665 13.4889L36.8971 12.8261C37.2441 12.1305 37.5911 11.4348 37.9381 10.7392C37.5356 10.8352 37.3378 11.0542 37.1428 11.2755C36.6385 11.848 36.1343 12.4206 35.6302 12.9933L35.6283 12.9954C34.9428 13.7741 34.2573 14.5527 33.5713 15.3309C33.1686 15.7876 32.7624 16.2415 32.3562 16.6954L32.3556 16.6961C31.329 17.8433 30.3024 18.9905 29.3322 20.1822C28.9286 20.678 28.729 21.3619 28.5424 22.0015C28.5303 22.0429 28.5182 22.0842 28.5062 22.1253C28.2274 23.0757 27.5649 23.6869 26.8715 24.3267C26.8493 24.3472 26.827 24.3677 26.8048 24.3882C26.4453 24.7203 26.1258 25.098 25.807 25.4751C25.3987 25.9579 24.9914 26.4396 24.5023 26.8225C24.431 26.8783 24.3597 26.9341 24.2884 26.9898C21.5815 29.1072 18.8945 31.209 17.9257 34.6609C18.0279 34.571 18.1436 34.4694 18.2658 34.3619L18.3784 34.2629C18.4602 34.1911 18.5438 34.1175 18.6275 34.044C18.659 34.0599 18.6905 34.0758 18.722 34.0917C18.7662 34.1139 18.8105 34.1362 18.8546 34.1585C18.7853 34.3333 18.7138 34.5073 18.6422 34.6814C18.4867 35.0592 18.3313 35.437 18.1995 35.8227C17.897 36.7078 17.3757 37.4705 16.851 38.2383C16.2001 39.1906 15.5438 40.1507 15.2931 41.3619C14.9905 42.8247 14.3719 44.3847 13.1435 45.5074C13.121 45.5278 13.1222 45.5735 13.124 45.6425C13.1251 45.6831 13.1264 45.7318 13.1232 45.788C13.8908 44.9614 14.6369 44.1579 15.3763 43.3616L16.368 42.2936C16.4597 42.3671 16.5516 42.4404 16.6434 42.5137C16.3445 43.0516 16.0457 43.5896 15.7468 44.1276L15.2851 44.9588L15.3905 45.0398C15.4359 45.0747 15.4813 45.1097 15.5267 45.1446C15.6662 44.9852 15.8046 44.8248 15.943 44.6644C16.2411 44.3188 16.5393 43.9732 16.8484 43.6376C17.4764 42.9558 18.0981 42.2677 18.7199 41.5796C20.3228 39.8057 21.9261 38.0313 23.636 36.3639C24.8122 35.2169 26.2742 34.2366 27.7842 33.5739C29.1756 32.9632 29.6701 31.8081 30.1416 30.7068C30.1763 30.6258 30.2108 30.5452 30.2455 30.4651C30.4034 30.101 30.5452 29.7305 30.6864 29.3613C31.1899 28.0452 31.6872 26.7452 32.8892 25.8052C33.0621 25.6699 33.1955 25.4131 33.2321 25.194C33.3279 24.6222 33.3969 24.0462 33.4616 23.5054L33.4618 23.5044L33.4622 23.5004C33.4857 23.3049 33.5085 23.114 33.5319 22.9297C32.777 22.905 32.9991 22.3115 33.1537 21.9376C33.1771 21.8809 33.2005 21.8242 33.2239 21.7675L33.2832 21.6241C33.8587 20.2302 34.436 18.832 35.1313 17.4958C35.669 16.4621 36.2816 15.4663 36.8942 14.4706ZM43.7273 26.4793C44.1915 27.4882 44.534 28.2326 44.9935 29.2311C45.0149 28.7752 45.036 28.3467 45.0562 27.9371C45.1008 27.0322 45.1409 26.219 45.1695 25.4056C45.1986 24.5773 45.5578 23.9713 46.3184 23.5498C46.4353 23.9701 46.5417 24.3531 46.6934 24.8992L46.7544 25.1187C46.8252 24.7836 46.8587 24.4532 46.891 24.1343C46.97 23.3556 47.042 22.645 47.6326 22.0988V25.5478C47.7331 25.5113 47.8446 25.4708 47.9893 25.4183L48.2705 25.3161C48.3706 25.2798 48.4834 25.2388 48.6122 25.192C48.1405 26.0523 47.8279 26.9359 47.5222 27.8001C47.0931 29.0129 46.6776 30.1875 45.8547 31.206C45.3834 31.789 45.1852 32.6978 45.1333 33.4751C45.0318 34.9938 44.1961 36.0147 43.1387 36.9599C42.6082 37.4343 42.0822 37.9136 41.5562 38.3928C40.916 38.9762 40.2755 39.5597 39.6272 40.1342C38.614 41.032 37.5922 41.9205 36.5703 42.809C36.1197 43.2009 35.6687 43.593 35.2188 43.9856C35.1943 44.007 35.1647 44.0273 35.135 44.0476C35.0704 44.0918 35.0057 44.1361 34.9945 44.191C34.8515 44.8927 34.3425 45.0758 33.8344 45.2585C33.4559 45.3946 33.0778 45.5306 32.8522 45.8809C32.7903 45.8209 32.7285 45.7606 32.6667 45.7002C32.6915 45.6491 32.7132 45.5951 32.7348 45.541C32.7814 45.4247 32.8281 45.3082 32.9071 45.2203C33.2573 44.8309 33.6192 44.4502 33.9811 44.0695C34.7276 43.2844 35.4738 42.4995 36.1157 41.6388C36.8294 40.682 37.3984 39.6166 37.9649 38.5556L37.9654 38.5548C38.0908 38.32 38.2162 38.0851 38.3429 37.852L38.4619 37.633C39.2778 36.1326 40.0953 34.6289 40.8077 33.0803C41.3486 31.904 41.834 30.7029 42.3193 29.5017C42.5808 28.8545 42.8426 28.2066 43.1128 27.5633C43.1952 27.3669 43.307 27.1824 43.4546 26.9389C43.5346 26.8069 43.6252 26.6574 43.7273 26.4793ZM11.0355 39.4489C11.0211 39.4871 11.0067 39.5253 10.9898 39.5613L11.1155 39.6709C11.1511 39.702 11.1868 39.7332 11.2225 39.7643C11.3106 39.6577 11.4004 39.5522 11.4901 39.4467C11.6847 39.2179 11.8793 38.9891 12.0577 38.7488C12.401 38.2859 12.7673 37.8435 13.1337 37.401C13.9436 36.423 14.754 35.4444 15.3179 34.2428C15.8412 33.1276 16.7149 32.1624 17.5788 31.208C17.8172 30.9446 18.0548 30.6821 18.2841 30.4175C18.7296 29.9036 19.2106 29.4187 19.6914 28.934C20.2892 28.3314 20.8867 27.7292 21.4149 27.0721C22.3469 25.913 23.1985 24.6906 24.0497 23.4688L24.0502 23.4681C24.3176 23.0843 24.5851 22.7004 24.8549 22.3187C25.0247 22.0783 25.1616 21.8152 25.2985 21.5521C25.3617 21.4306 25.4249 21.309 25.4914 21.1898L25.4077 21.1409C25.3855 21.1279 25.3634 21.115 25.3412 21.1022C25.2157 21.2716 25.0902 21.441 24.9647 21.6104C24.8391 21.7799 24.7136 21.9493 24.5881 22.1187L24.5413 22.0966C24.5077 22.0807 24.4742 22.0648 24.4406 22.049C24.7686 21.007 25.0967 19.9651 25.4249 18.9233C25.1138 19.0999 24.9326 19.3426 24.7567 19.5783C24.6911 19.6661 24.6263 19.753 24.5558 19.835C24.3411 20.085 24.1342 20.3473 23.927 20.61C23.3775 21.3065 22.8258 22.0059 22.1223 22.484C21.9483 22.6023 21.7731 22.7177 21.5987 22.8327C20.5481 23.5251 19.5239 24.2 18.9253 25.3727C18.9152 25.3925 18.8633 25.3916 18.8102 25.3907C18.7853 25.3903 18.7601 25.3899 18.7388 25.3916C18.7145 25.2915 18.6904 25.1922 18.6581 25.0595C18.6281 24.9364 18.5911 24.7843 18.5405 24.5761C18.1405 25.2577 17.7505 25.9162 17.3694 26.5599C16.5453 27.9517 15.7616 29.2751 15.0059 30.6129C14.3732 31.7329 13.9871 32.9608 13.6009 34.1891C13.0387 35.9771 12.4761 37.7661 11.1525 39.2243C11.0974 39.285 11.0665 39.3669 11.0355 39.4489Z" fill="url(#paint0_linear)"/>
  <path d="M76.3159 10.9195H82.3103V6.5251H64.9105V10.9195H70.8745V27.7394H76.3159V10.9195Z" fill="url(#paint1_linear)"/>
  <path d="M89.3806 27.7394H84.216V13.041H89.3806V27.7394Z" fill="url(#paint2_linear)"/>
  <path d="M89.7495 8.73745C89.7495 10.2831 88.3662 11.4954 86.7984 11.4954C85.2308 11.4954 83.8472 10.2831 83.8472 8.73745C83.8472 7.19204 85.2308 5.97968 86.7984 5.97968C88.3662 5.97968 89.7495 7.19204 89.7495 8.73745Z" fill="url(#paint3_linear)"/>
  <path fill-rule="evenodd" clip-rule="evenodd" d="M105.582 14.1624C106.227 13.9502 106.78 13.8896 107.887 13.8896V9.82849C105.643 9.85876 104.106 10.6773 103.03 11.95C101.892 11.4349 100.417 11.0711 98.6032 11.0711C93.5306 11.0711 91.0408 13.4653 91.0408 16.5263C91.0408 18.193 91.9323 19.6175 93.377 20.4962C92.1168 21.2845 91.2867 22.4056 91.2867 23.5574C91.2867 24.5876 91.7478 25.6181 92.9159 26.2849C91.3788 26.9516 90.5487 28.0729 90.5487 29.4367C90.5487 31.8006 92.4241 33.5584 98.6645 33.5584C104.475 33.5584 107.334 31.5582 107.334 28.3456C107.334 25.4665 104.997 23.4058 100.109 23.4058H97.4347C95.8364 23.4058 95.3753 23.0118 95.3753 22.345C95.3753 22.0116 95.5597 21.7086 95.8056 21.4359C96.7279 21.7388 97.7422 21.9207 98.972 21.9207C103.952 21.9207 106.35 19.5871 106.35 16.6474C106.35 15.7382 106.135 14.8896 105.582 14.1624ZM98.7261 18.496C97.0966 18.496 96.1746 17.6779 96.1746 16.4355C96.1746 15.1321 97.0966 14.2837 98.7568 14.2837C100.386 14.2837 101.308 15.1018 101.308 16.4052C101.308 17.7082 100.355 18.496 98.7261 18.496ZM94.822 28.6488C94.822 28.1032 95.0677 27.6486 95.6519 27.2546H99.2486C101.247 27.2546 102.046 27.588 102.046 28.6183C102.046 29.6183 101.062 30.1944 98.4802 30.1944C95.4981 30.1944 94.822 29.6183 94.822 28.6488Z" fill="url(#paint4_linear)"/>
  <path fill-rule="evenodd" clip-rule="evenodd" d="M124.58 19.9508V20.86H113.329C113.482 23.1936 114.866 24.3452 116.926 24.3452C118.647 24.3452 119.662 23.4966 120.4 22.345L124.457 24.2544C122.859 26.7394 120.307 28.1637 116.649 28.1637C111.3 28.1637 108.011 24.5877 108.011 19.6175C108.011 14.6169 111.085 11.0711 116.341 11.0711C121.445 11.0711 124.58 14.4653 124.58 19.9508ZM113.298 17.8295H119.354C119.231 15.5867 118.094 14.6474 116.311 14.6474C114.712 14.6474 113.452 15.5564 113.298 17.8295Z" fill="url(#paint5_linear)"/>
  <path d="M136.846 16.011V11.1622C136.416 11.1014 136.016 11.0711 135.586 11.0711C133.864 11.0711 132.297 11.8892 131.159 14.1321V11.5257H126.21V27.7394H131.374V21.4359C131.374 17.0112 133.342 15.9807 135.832 15.9807C136.047 15.9807 136.262 15.9807 136.846 16.011Z" fill="url(#paint6_linear)"/>
  <path fill-rule="evenodd" clip-rule="evenodd" d="M89.9651 42.59C89.9651 50.8938 84.4007 53.5002 79.1747 53.5002H70.9666V32.2859H78.2215C84.3392 32.2859 89.9651 34.9528 89.9651 42.59ZM76.3773 36.559V49.2271H79.1747C81.6956 49.2271 84.37 48.045 84.37 42.59C84.37 38.8018 82.6793 36.559 78.3753 36.559H76.3773Z" fill="url(#paint7_linear)"/>
  <path fill-rule="evenodd" clip-rule="evenodd" d="M106.627 49.8939V41.9534C106.627 38.7108 104.629 36.8317 99.4954 36.8317C94.8838 36.8317 92.1788 38.6502 92.0557 42.1657H97.1587C97.2203 40.8321 97.835 40.2867 99.403 40.2867C101.063 40.2867 101.463 40.8018 101.463 42.2566V42.9838L98.3577 43.3476C93.2853 43.9841 91.4101 45.8327 91.4101 48.9542C91.4101 51.8333 93.3776 53.9245 96.8515 53.9245C98.7881 53.9245 100.448 53.3791 101.586 51.894C101.709 52.4697 101.893 53.0154 102.17 53.5002H107.181C106.72 52.3486 106.627 51.2574 106.627 49.8939ZM96.6671 48.4088C96.6671 47.2267 97.4353 46.5904 99.5566 46.2873L101.463 46.0145V47.4388C101.463 49.015 100.171 50.106 98.5422 50.106C97.3124 50.106 96.6671 49.4695 96.6671 48.4088Z" fill="url(#paint8_linear)"/>
  <path d="M115.511 37.6803H119.354V41.2564H115.511V47.9237C115.511 49.2572 115.911 49.8634 117.356 49.8634C118.186 49.8634 118.832 49.7422 119.6 49.5604V53.3791C118.524 53.7123 117.264 53.9245 115.88 53.9245C111.73 53.9245 110.347 51.9849 110.347 48.7117V41.2564H108.134V37.6803H110.347V33.498H115.511V37.6803Z" fill="url(#paint9_linear)"/>
  <path fill-rule="evenodd" clip-rule="evenodd" d="M137 46.6207V45.7115C137 40.2259 133.864 36.8317 128.761 36.8317C123.504 36.8317 120.43 40.3775 120.43 45.3781C120.43 50.3484 123.72 53.9245 129.069 53.9245C132.727 53.9245 135.278 52.5002 136.877 50.0149L132.819 48.1055C132.081 49.2572 131.067 50.106 129.345 50.106C127.286 50.106 125.902 48.9542 125.748 46.6207H137ZM131.774 43.59H125.718C125.872 41.3172 127.132 40.408 128.73 40.408C130.514 40.408 131.651 41.3472 131.774 43.59Z" fill="url(#paint10_linear)"/>
  <defs>
    <linearGradient id="paint0_linear" x1="1.55436e-05" y1="-29.1429" x2="159.545" y2="29.1308" gradientUnits="userSpaceOnUse">
      <stop stop-color="#FF0099"/>
      <stop offset="1" stop-color="#1A8DE0"/>
    </linearGradient>
    <linearGradient id="paint1_linear" x1="1.55436e-05" y1="-29.1429" x2="159.545" y2="29.1308" gradientUnits="userSpaceOnUse">
      <stop stop-color="#FF0099"/>
      <stop offset="1" stop-color="#1A8DE0"/>
    </linearGradient>
    <linearGradient id="paint2_linear" x1="1.55436e-05" y1="-29.1429" x2="159.545" y2="29.1308" gradientUnits="userSpaceOnUse">
      <stop stop-color="#FF0099"/>
      <stop offset="1" stop-color="#1A8DE0"/>
    </linearGradient>
    <linearGradient id="paint3_linear" x1="1.55436e-05" y1="-29.1429" x2="159.545" y2="29.1308" gradientUnits="userSpaceOnUse">
      <stop stop-color="#FF0099"/>
      <stop offset="1" stop-color="#1A8DE0"/>
    </linearGradient>
    <linearGradient id="paint4_linear" x1="1.55436e-05" y1="-29.1429" x2="159.545" y2="29.1308" gradientUnits="userSpaceOnUse">
      <stop stop-color="#FF0099"/>
      <stop offset="1" stop-color="#1A8DE0"/>
    </linearGradient>
    <linearGradient id="paint5_linear" x1="1.55436e-05" y1="-29.1429" x2="159.545" y2="29.1308" gradientUnits="userSpaceOnUse">
      <stop stop-color="#FF0099"/>
      <stop offset="1" stop-color="#1A8DE0"/>
    </linearGradient>
    <linearGradient id="paint6_linear" x1="1.55436e-05" y1="-29.1429" x2="159.545" y2="29.1308" gradientUnits="userSpaceOnUse">
      <stop stop-color="#FF0099"/>
      <stop offset="1" stop-color="#1A8DE0"/>
    </linearGradient>
    <linearGradient id="paint7_linear" x1="1.55436e-05" y1="-29.1429" x2="159.545" y2="29.1308" gradientUnits="userSpaceOnUse">
      <stop stop-color="#FF0099"/>
      <stop offset="1" stop-color="#1A8DE0"/>
    </linearGradient>
    <linearGradient id="paint8_linear" x1="1.55436e-05" y1="-29.1429" x2="159.545" y2="29.1308" gradientUnits="userSpaceOnUse">
      <stop stop-color="#FF0099"/>
      <stop offset="1" stop-color="#1A8DE0"/>
    </linearGradient>
    <linearGradient id="paint9_linear" x1="1.55436e-05" y1="-29.1429" x2="159.545" y2="29.1308" gradientUnits="userSpaceOnUse">
      <stop stop-color="#FF0099"/>
      <stop offset="1" stop-color="#1A8DE0"/>
    </linearGradient>
    <linearGradient id="paint10_linear" x1="1.55436e-05" y1="-29.1429" x2="159.545" y2="29.1308" gradientUnits="userSpaceOnUse">
      <stop stop-color="#FF0099"/>
      <stop offset="1" stop-color="#1A8DE0"/>
    </linearGradient>
  </defs>
</svg>
