<svg width="36" height="42" viewBox="0 0 36 42" fill="none" xmlns="http://www.w3.org/2000/svg">
<path d="M3.47034 42C3.73506 41.3169 3.93883 40.7864 4.14752 40.2576C4.17161 40.1963 4.21436 40.1376 4.26186 40.0914C5.21027 39.1715 6.25278 38.3292 7.08292 37.3122C7.80783 36.424 8.29401 35.3393 8.9759 34.1892C8.46166 34.1892 8.19204 34.1892 7.79106 34.1892C7.98811 34.0573 8.06212 33.9655 8.14014 33.9616C10.8986 33.8332 11.7671 31.4751 12.847 29.6239C13.8093 27.9743 14.8534 26.5865 16.5711 25.7932C17.7051 25.2695 18.7044 24.6052 19.2972 23.4906C20.0294 22.1142 20.6821 20.6953 21.4012 19.2298C21.5973 19.6281 21.8009 20.0415 22.0045 20.4549C22.0787 20.4468 22.1528 20.4386 22.227 20.4305C22.227 19.7778 22.1872 19.1215 22.2421 18.4735C22.2746 18.0888 22.3425 17.587 22.5936 17.3651C23.227 16.8051 23.367 16.1029 23.4629 15.346C23.4796 15.2149 23.5256 15.0792 23.5907 14.9642C24.2446 13.8106 24.9086 12.6625 25.5616 11.5083C25.6756 11.3069 25.879 11.0397 25.8237 10.8776C25.4593 9.81017 26.2574 9.32296 26.8027 8.67672C27.2101 8.19378 27.5183 7.62657 27.8727 7.09839C28.2793 6.49234 28.6548 5.86202 29.1028 5.2886C29.9481 4.20641 30.7909 3.16617 32.035 2.42517C32.7235 2.01505 33.0444 0.98257 33.6806 0C33.7086 0.414194 33.7595 0.562746 33.7202 0.681004C33.4516 1.48823 33.2444 2.3306 32.8608 3.08093C32.4557 3.87378 31.8708 4.57323 31.3766 5.32161C31.155 5.65716 30.9636 6.0129 30.9112 6.43681C31.8969 5.57249 32.883 4.70819 33.8639 3.84834C34.3554 4.65343 34.3412 4.64372 33.7591 5.49715C31.87 8.26738 30.1593 11.1209 29.3116 14.4248C29.0388 15.4883 28.4133 16.4683 28.1971 17.5371C27.8603 19.2021 27.5455 20.915 27.5902 22.5979C27.618 23.6535 27.2329 24.4077 26.6789 25.0487C26.0886 25.7313 25.4612 26.2968 25.2478 27.2452C25.1654 27.6112 24.665 27.8895 24.339 28.1904C24.0942 28.4165 23.7334 28.5633 23.5799 28.8344C22.7895 30.23 21.3451 30.735 20.1166 31.5545C19.2968 32.1011 18.536 32.7992 17.9101 33.5627C16.9043 34.79 16.0454 36.1378 15.0906 37.4089C14.9242 37.6305 14.6069 37.7666 14.3327 37.8722C12.935 38.4103 11.531 38.9331 10.1221 39.4405C9.90863 39.5174 9.65592 39.4803 9.42254 39.5069C8.28229 39.6372 7.25308 39.8927 6.29288 40.6899C5.50619 41.3433 4.38845 41.5944 3.47034 42Z" fill="white"/>
<path d="M25.5507 4.78974C24.7278 6.19525 23.8401 7.56735 23.1004 9.01596C22.3852 10.4162 21.8005 11.8862 21.2081 13.3459C21.0601 13.7104 20.8476 14.2888 21.57 14.3129C21.4855 14.9912 21.4082 15.7596 21.2831 16.5202C21.2481 16.7338 21.1205 16.9841 20.955 17.1159C19.4822 18.2894 19.115 20.0382 18.4253 21.6585C17.9396 22.7993 17.4994 24.0499 16.0701 24.6889C14.6252 25.335 13.2263 26.2906 12.1008 27.4087C9.82993 29.6647 7.75601 32.1209 5.60596 34.4991C5.17282 34.9781 4.76224 35.478 4.34125 35.9681C4.26422 35.9077 4.1871 35.8473 4.11006 35.787C4.54329 34.9925 4.97651 34.1979 5.40983 33.4035C5.32191 33.3321 5.23399 33.2606 5.14623 33.1889C4.12569 34.3086 3.10524 35.4282 2.04136 36.5953C2.04966 36.4473 2.02663 36.3534 2.06078 36.3217C3.23627 35.2273 3.82812 33.7066 4.11776 32.2807C4.55106 30.1482 6.25029 28.814 6.89877 26.8811C7.08299 26.3319 7.31546 25.7991 7.52565 25.2589C7.4533 25.2216 7.38079 25.1845 7.30828 25.1472C7.0681 25.3624 6.82792 25.5773 6.63677 25.7486C7.5882 22.295 10.2715 20.2277 12.9297 18.1076C13.7633 17.443 14.3483 16.473 15.133 15.7347C15.8194 15.0889 16.4856 14.485 16.761 13.5288C16.9503 12.8719 17.1401 12.1493 17.5514 11.6347C18.8472 10.0131 20.2483 8.47613 21.6077 6.90557C22.7475 5.58842 23.8858 4.26991 25.0252 2.95237C25.2118 2.73663 25.4011 2.52323 25.7862 2.42963C25.1221 3.78581 24.4581 5.14199 23.7939 6.49817C23.8506 6.53662 23.9072 6.57487 23.9639 6.61332C24.4208 5.95484 24.8775 5.29637 25.3344 4.63789C25.4065 4.68857 25.4786 4.73906 25.5507 4.78974Z" fill="white"/>
<path d="M31.3257 17.7731C31.7699 18.7566 32.0976 19.4823 32.5373 20.4555C32.603 19.0294 32.666 17.8783 32.7057 16.7264C32.7335 15.919 33.0773 15.3283 33.8051 14.9174C33.9313 15.3799 34.0448 15.7961 34.2223 16.4468C34.4553 15.3225 34.266 14.2535 35.0626 13.503C35.0626 14.6731 35.0626 15.7338 35.0626 16.8651C35.2639 16.7905 35.5116 16.699 36 16.5183C34.9151 18.5337 34.71 20.6804 33.3613 22.3807C32.9104 22.949 32.7208 23.8349 32.6711 24.5926C32.574 26.0731 31.7743 27.0683 30.7625 27.9897C29.637 29.0149 28.5326 30.0637 27.4024 31.084C26.0053 32.3452 24.5909 33.5876 23.1841 34.8383C23.1099 34.9043 22.9851 34.9604 22.9695 35.0385C22.7307 36.2324 21.4252 35.8862 20.9196 36.6858C20.8604 36.6273 20.8012 36.5685 20.7421 36.5097C20.8171 36.3526 20.8614 36.1673 20.9722 36.0419C21.9983 34.8793 23.1304 33.7963 24.0424 32.5507C24.8767 31.4112 25.5043 30.1136 26.1735 28.8592C26.9918 27.3255 27.8172 25.7909 28.532 24.2077C29.3286 22.4432 29.9992 20.6212 30.7378 18.8298C30.8594 18.5345 31.0479 18.2669 31.3257 17.7731Z" fill="white"/>
<path d="M0 30.5255C0.0508127 30.4148 0.0784616 30.2837 0.155647 30.1969C2.29233 27.799 2.35631 24.4835 3.84291 21.8026C4.90062 19.8951 6.01449 18.0193 7.22505 15.9178C7.32572 16.3396 7.36998 16.5247 7.41486 16.7128C7.47837 16.7076 7.57905 16.7227 7.59325 16.6944C8.26122 15.3615 9.48267 14.6883 10.6524 13.8785C11.5796 13.2365 12.231 12.1858 12.981 11.2963C13.2296 11.0015 13.404 10.6438 13.8126 10.4075C13.4986 11.4231 13.1846 12.4386 12.8708 13.4544C12.9177 13.4769 12.9647 13.4997 13.0119 13.5224C13.252 13.1921 13.4924 12.8618 13.7325 12.5315C13.7805 12.5598 13.8282 12.5884 13.8762 12.6169C13.6749 12.9849 13.5048 13.3748 13.2671 13.7173C12.1869 15.2743 11.1476 16.8658 9.97552 18.351C9.06349 19.5067 7.93592 20.4883 6.97974 21.6121C5.96502 22.8049 4.78037 23.9539 4.14141 25.341C3.35774 27.0422 2.07647 28.285 1.0218 29.7334C0.772495 30.0758 0.489875 30.394 0.222644 30.7234C0.148397 30.6574 0.0742275 30.5915 0 30.5255Z" fill="white"/>
</svg>
